<svg height="15" viewBox="0 0 20 15" width="20" xmlns="http://www.w3.org/2000/svg"><path d="m13.5457505 3.3004033 6.1538462 6.15384616c.4005377.40053773.4005377 1.04993774 0 1.45047544l-6.1538462 6.1538462c-.4005377.4005377-1.0499377.4005377-1.4504754 0-.4005377-.4005378-.4005377-1.0499378 0-1.4504755l4.4027249-4.4030956-15.47235897.0001282c-.5664459 0-1.02564103-.4591951-1.02564103-1.025641 0-.56644592.45919513-1.02564105 1.02564103-1.02564105l15.47235897-.00084615-4.4027249-4.40212125c-.4005377-.40053774-.4005377-1.04993771 0-1.45047545.4005377-.40053773 1.0499377-.40053773 1.4504754 0z" fill="#1c1264" transform="translate(0 -3)"/></svg>