<?xml version="1.0" encoding="UTF-8"?>
<svg width="40px" height="40px" viewBox="0 0 40 40" version="1.1" xmlns="http://www.w3.org/2000/svg" xmlns:xlink="http://www.w3.org/1999/xlink">
    <!-- Generator: Sketch 52.6 (67491) - http://www.bohemiancoding.com/sketch -->
    <title>Group 35 Copy</title>
    <desc>Created with Sketch.</desc>
    <g id="Article-Page" stroke="none" stroke-width="1" fill="none" fill-rule="evenodd">
        <g id="Microplastics-desktop" transform="translate(-90.000000, -10815.000000)">
            <g id="Group-36" transform="translate(-314.000000, 10615.000000)">
                <g id="Group-35-Copy" transform="translate(404.000000, 200.000000)">
                    <rect id="Rectangle" fill="#1C1264" x="0" y="0" width="40" height="40"></rect>
                    <path d="M26.4982425,21.2051282 L11.025641,21.2051282 C10.4591951,21.2051282 10,20.7459331 10,20.1794872 C10,19.6130413 10.4591951,19.1538462 11.025641,19.1538462 L26.4982425,19.1538462 L22.0952751,14.7508787 C21.6947374,14.350341 21.6947374,13.700941 22.0952751,13.3004033 C22.4958128,12.8998656 23.1452128,12.8998656 23.5457505,13.3004033 L29.6995967,19.4542495 C30.1001344,19.8547872 30.1001344,20.5041872 29.6995967,20.9047249 L23.5457505,27.0585711 C23.1452128,27.4591088 22.4958128,27.4591088 22.0952751,27.0585711 C21.6947374,26.6580333 21.6947374,26.0086333 22.0952751,25.6080956 L26.4982425,21.2051282 Z" id="Combined-Shape" fill="#F0CD57" fill-rule="nonzero" transform="translate(20.000000, 20.179487) scale(-1, 1) translate(-20.000000, -20.179487) "></path>
                </g>
            </g>
        </g>
    </g>
</svg>