<?xml version="1.0" encoding="UTF-8"?>
<svg width="41px" height="13px" viewBox="0 0 41 13" version="1.1" xmlns="http://www.w3.org/2000/svg"
>
  <!-- Generator: Sketch 57.1 (83088) - https://sketch.com -->
  <title>~</title>
  <desc>Created with Sketch.</desc>
  <g id="Landing-Page" stroke="none" stroke-width="1" fill="none" fill-rule="evenodd">
    <g id="Landing-page-design" transform="translate(-92.000000, -200.000000)" fill="#EB4535" fill-rule="nonzero">
      <g id="Group-7">
        <g id="Group" transform="translate(0.000000, 200.000000)">
          <path
            d="M132.112,0.928 C132.112,4.72535232 131.194676,7.60532352 129.36,9.568 C127.525324,11.5306765 124.858684,12.512 121.36,12.512 C119.738659,12.512 118.138675,12.2133363 116.56,11.616 C114.981325,11.0186637 113.210676,10.0373402 111.248,8.672 C109.413324,7.3919936 107.930672,6.51733568 106.8,6.048 C105.669328,5.57866432 104.506673,5.344 103.312,5.344 C101.605325,5.344 100.304004,5.877328 99.408,6.944 C98.5119955,8.010672 98.064,9.56798976 98.064,11.616 L92.688,11.616 C92.688,7.81864768 93.5946576,4.93867648 95.408,2.976 C97.2213424,1.01332352 99.898649,0.032 103.44,0.032 C105.061341,0.032 106.661325,0.33066368 108.24,0.928 C109.818675,1.52533632 111.589324,2.50665984 113.552,3.872 C115.386676,5.1520064 116.869328,6.02666432 118,6.496 C119.130672,6.96533568 120.293327,7.2 121.488,7.2 C123.194675,7.2 124.495996,6.666672 125.392,5.6 C126.288004,4.533328 126.736,2.97601024 126.736,0.928 L132.112,0.928 Z"
            id="~"></path>
        </g>
      </g>
    </g>
  </g>
</svg>
