<svg viewBox="0 0 8145 3009" xmlns="http://www.w3.org/2000/svg"><g fill="none" fill-rule="evenodd"><path d="M7314 2158l22.247 50.64L7567 2333m-255-174.6c-37.477-6.899-11.81-8.699 77-5.4 16.403.61 23.764 32.08 43.5 33 18.95.884 49.515-6.763 70.5-5 22.479 1.889 37.5 2 99-12.5 5.81-1.37 18.815 4.862 72.5 7.5 19.752.97 62.252 1.17 127.5.6m-234.587 156.908l28.253-30.032c-20.922 4.344-33.31 5.185-37.166 2.524-3.856-2.661-1.356-10.328 7.5-23 11.131-6.01 20.964-8.677 29.5-8 8.536.677 20.206 5.05 35.011 13.12l28.489 42.317-38.142 38.563M7568 2333l53 36m-1 .925l78 17.15m.29-.9l12.42 20.65m-12.42-20.65l12.42 20.65m1.915-.825l5.75 7m-2.375 1.175l29-1.75-20.153 24.15m-7.487-22.275l8.28 22.4m1.36.3l31 51m0-.062l32.872-21.938 2.128 39m-35-17.075l35 17.15m1 1.117l34-40.192-17.479 51m-14.956-9.1l15.87 11.2M7802 2177.225l124 4.55m-123-5.215c18.207-24.453 33.873-41.306 47-50.56 13.127-9.254 34.605-18.587 64.436-28l23.564 30.74-13.196 52.26M7813 2517.85l100-28.7m.22.575l16.56 11.55m-16.56-11.55l16.56 11.55m-4.78-319.7l217 17.85M7932 2503l140 122" stroke="#00C9FF" stroke-width="6" stroke-linecap="round" stroke-linejoin="round"/><path d="M-347.608 566.212l38.314-22.438 37.965 11.593 23.076-9.1 16.109 14.834 50.33-5.61 53.988-91.499 62.435 2.992 13.845-21.192L20.03 416.87l18.547-30.542h1.002l27.603-27.05 125.913-34.656 5.303-50.91c6.306 1.302 12.299.155 17.98-3.441 5.68-3.596 28.552-17.93 68.613-43.003-1.467-8.58.508-14.806 5.926-18.675 8.263-5.902 26.81-14.335 55.64-25.298 8.342-.64 8.811-5.542 16.45-6.155 11.623-.933 13.898.558 24.44 0 19.364-1.026 32.796 1.137 49.777 0 9.124-.612 25.028.085 38.478-1.797 11.101-1.553 20.435-5.725 23.75-6.25 13.078-2.068 15.723-1.365 20.541 0 7.076 2.007 13.75 5.462 23.274 3.826 11.36-1.952 17.11-10.53 26.538-12.29 12.42-2.318 21.838 3.78 31.879 3.01 17.178-1.317 32.338-8.628 39.687-10.484 8.506-2.148 17.064-4.82 22.874-8.4 6.522-4.017 10.04-8.978 15.117-11.734 5.662-3.072 12.205-3.229 14.928-6.528 1.78-7.444 3.405-13.426 4.877-17.946 1.531-4.703 4.79-11.738 9.777-21.105l22.524-10.376c2.807-.792.584-6.027 2.931-6.551 5.545-1.24 14.609 2.843 17.59 3.092 10.638.89 20.066 7.002 25.027 3.459 3.875-2.767 2.36-12.4 6.112-14.823 3.928-2.535 13.119 2.157 16.913 0 3.799-1.655 5.698-3.023 5.698-4.103 0-1.006-1.9-2.767-5.698-5.284-8.11-.712-12.729-1.623-13.854-2.734-1.1-1.085.182-3.468 3.843-7.148 6.869-1.01 9.293-5.177 12.296-7.122 4.185-2.712 7.223-3.624 4.839-7.97-4.095-7.462-3.26-8.143-4.839-15.174 5.063-6.228 9.455-9.269 13.174-9.12 4.335.203 6.282 3.357 14.008 4.8 2.325.434 7.518.434 15.581 0 6.156-.74 9.87 6.775 15.152 6.521 5.425-.26 8.599-7.243 13.479-8.498 7.505-1.93 16.178 1.858 20.922 3.459 5.029 1.697 13.302-4.418 19.91 0 4.039 2.7 7.684 8.483 11.665 14.622 1.754 2.704-8.165 4.508-6.218 7.118 1.976 2.649 15.823 6.099 18.127 8.166l3.945-8.166 36.66 12.846c-.36 3.804 7.355 3.068 8.51 5.666 1.37 3.085 4.807-.365 7.317 2.734 2.51 3.098-3.848 10.171-2.758 11.97 3.556 5.863 3.41 15.262 7.954 16.687 12.594 3.95 17.6 3.95 15.016 0 5.882.171 10.387.171 13.515 0 3.128-.172 7.966-2.148 14.515-5.93l13.515 1.483 25.026 16.799c1.917 3.435 3.252 6.4 4.005 8.893 1.51 5.002 1.842 13.367 5.005 15.317 8.293 5.112 12.883 6.55 18.52 5.435 3.757-.743 7.28-4.473 10.566-11.188l24.972.812c9.01 4.941 14.682 8.4 17.018 10.376 2.336 1.976 3.978 5.147 4.928 9.51 5.27 4.739 8.966 8.65 11.089 11.736 2.123 3.085 4.292 7.696 6.507 13.834 5.964 7.028 8.467 11.804 7.508 14.329-2.322 6.113-9.24 5.798-9.51 7.905-.69 5.39 5.11 3.562 5.506 4.94 1.428 4.987 10.31-7.883 11.512-4.94 2.175 5.324 3.843 6.971 5.005 4.94 3.67-1.975 6.674-1.152 9.01 2.471 2.336 3.624 3.003 5.435 2.002 5.435-2.48 3.412-3.815 6.212-4.004 8.4-.19 2.187.478 3.34 2.002 3.458 4.338-1.647 6.84-2.14 7.508-1.482 1.001.988-.288 10.47 2.002 11.858 4.255 2.58 8.593 3.568 13.014 2.965l11.012 11.364c14.853 11.025 27.65 21.252 32.817 23.073 4.328 1.525 10.655-4.69 13.323-3.804 4.642 1.543 8.606 2.692 12.299 3.804 12.58 3.784 16.04 2.78 21.146 2.62 5.005 7.575 9.65 15.311 17.658 15.64 8.008.33 15.448-.636 18.785-1.295 16.72 1.972 14.255-4.36 15.712-6.689 1.86-2.972 8.713 2.283 11.65 4.201 3.573 2.334 4.029 7.55 5.16 7.269 2.897-.721 5.992 6.04 7.677 6.426 4.27 1.06 8.874-8.841 10.84-8.354 5.537 1.372 6.414 8.032 7.404 8.354 3.018.98 4.577 1.664 7.416 3.014 7.938 3.773 3.66 7.825 9.133 10.357 12.009 5.555 18.539 9.579 13.236 6.638 1.677 4.577 9.198 3.418 12.551 7.341 5.03 5.885 6.324 9.01 9.342 12.934 3.018 3.923 4.812 4.806 6.255 6.42 3.901 4.367 3.488 4.303 5.332 6.129 4.32 4.277 9.93 1.964 14.065 6.085 7.819 7.797 25.966 22.41 22.908 15.666-.43-.947-3.671-1.719-6.539-4.414-.518-.487-.853-1.631-1.006-3.433.559-1.634 1.565-2.452 3.018-2.452 1.453 0 3.465.981 6.036 2.943 2.734.302 4.746.138 6.035-.49 1.29-.63 2.966-2.264 5.03-4.905 2.098-.297 3.607.52 4.527 2.452.92 1.933 1.255 4.221 1.006 6.866l2.68 5.1c-1.143 2.807-1.198 5.193-.165 7.16 1.032 1.966 2.877 4.581 5.532 7.846 2.017.255 3.526-.236 4.527-1.471 1-1.236 1.336-3.361 1.006-6.375 3.133.207 5.48.207 7.041 0 1.562-.208 2.736-1.352 3.521-3.433l7.042 5.394c4.484 6.956 7.67 12.513 9.556 16.673 1.888 4.16 2.558 7.103 2.012 8.827-3.015 8.713-4.02 14.598-3.018 17.654 1.004 3.057 4.692 5.345 11.066 6.866 16.67 4.07 16.744 8.898 22.205 9.405 5.46.507 17.222-2.36 24.168-9.405l64.396-10.22 16.884 25.88 33.531 10.518c4.556 4.495 8.3 7.202 11.234 8.122 2.933.92 7.82.92 14.66 0l26.214 8.222c3.6.522 7.839 3.052 12.714 7.59 4.874 4.54 11.921 12.517 21.14 23.932l61.966-12.879c6.012.816 10.154-.128 12.427-2.83 2.273-2.704 4.629-9.487 7.068-20.351h21.135c11.98 0 7.336 12.72 16.684 17.526 5.267 2.709 17.097 1.59 30.535 5.655 3.65 1.104 8.976 4.375 15.98 9.813 4.744 2.953 7.76 2.953 9.05 0 1.29-2.954-.068-8.11-4.073-15.468 3.399-3.501 10.698-6.297 21.896-8.389 6.285-1.174 11.397 1.002 21.596 0 5.316-.522 15.53-2.342 30.641-5.458l35.422-32.258 3.133-38.022 33.638-32.191 12.836 17.104c8.747-6.386 15.587-10.29 20.521-11.71 4.935-1.42 10.308-1.033 16.12 1.162 3.727 3.194 8.921 6.076 15.582 8.646 3.775 1.456 6.299-6.072 12.058-4.414 2.933.845 8.66 5.199 17.18 13.062 6.536-4.226 12.051-6.618 16.547-7.177 4.495-.56 11.802.239 21.92 2.394l37.25 21.832c8.023-3.154 13.556-4.69 16.6-4.61 10.708.28 5.633 3.476 12.663 4.61 7.944 1.282 27.541.476 31.932 0 27.471-2.98 37.18-10.633 43.18-10.633 9.253 0 18.354 1.419 27.302 4.255l40.93 68.809c17.964 20.61 31.4 33.897 40.309 39.862 8.908 5.964 19.716 8.908 32.424 8.831 8.431 4.789 18.802 7.855 31.113 9.2 6.39.697 6.686-4.574 15.988-4.6 5.744-.017 13.147 2.952 22.209 8.906 11.755-2.317 22.146-5.286 31.172-8.906 4.221-1.694 4.965-5.233 11.476-8.37 2.756-1.327 7.184 2.417 13.358 0 2.247-.879.462-12.883 5.287-16.467 1.455-1.081 5.675.278 12.66 4.078v7.328l24.664 8.831h30.848l4.086 10.461c-2.312 4.695-2.312 10.001 0 15.92 2.311 5.918 7.287 13.352 14.928 22.3l33.787 25.2 24.62 4.217 28.64 23.644c14.332 13.628 27.336 23.403 32.097 30.037 8.67 12.083 17.508 24.142 28.02 33.313 4.158 3.628 10.867 6.843 17.762 22.148l25.964 23.565c12.715 5.718 16.812 5.718 26.836 11.894 10.024 6.177 18.569-2.926 34.463 0 13.57-.891 23.88-.891 30.928 0 3.322.42 4.05-8.741 8.232-8.05 3.38.558 8.236 1.951 14.567 4.18 3.59 1.264 4.862-3.085 11.689-4.18 3.401-.546 10.719-.546 21.953 0 17.219 1.308 31.525 3.991 42.92 8.05 11.395 4.06 27.779 7.591 49.152 10.595l60.893-2.933 85.354 2.933 27.697-33.824 65.318 2.99 16.502 27.807 35.715-30.775 38.788 23.207-2.019 73.28-28.344 76.18 8.95 24.595-12.46 37.712-30.012 16.523-31.68 113.388 9.478 48.307 27.116 26.739-17.112 113.388 32.645 66.342-57.83 53.1 24.308 70.757-14.216 46.036 14.654 47.815 1.317 66.33-32.03 11.604-62.305 84.883 50.984 59.658h23.034l-10.71 14.228 10.71 14.227-18.985 11.775-5.842 24.53h14.117l18.986-6.868v19.134l-27.261 5.397 18.985 15.7 23.367-15.7 8.276 21.587-31.404 9.135 23.014 25.182-24.173 27.047-4.14 27.516 24.257 17.294 22.351-12.961 30.299 25.306-7.202 12.702-28.975-3.703-4.221 24.454 14.9 20.985-20.695 19.628 100.002 70.104 66.144 5.938v5.482l51.949-23.47 15.94 23.51 88.24-5.183 20.383-24.38 45.557 47.004 82.404-.24 61.15 73.546.522 20.475-22.822 9.48-3.31 22.117 30.662 46.89 30.313 19.465L4309 2408.917c28.211-20.056 49.215-34 63.012-41.83 13.796-7.83 23.079-11.075 27.847-9.736l23.108 25.78c2.552.716 8.558 1.34 18.017 1.869 9.46.53 23.798 1.046 43.016 1.55l17.73 53.592 28.642 5 116.638 17.351 26.935 73.507 20.055 10.152 18.937 9c3.959-24.281 8.908-42.3 14.848-54.054 5.94-11.756 17.45-32.074 34.528-60.956 12.602.011 21.855-1.542 27.757-4.66 5.992-3.164 14.58-11.034 25.766-23.61 24.13 25.618 44.004 44.381 59.62 56.288 9.375 7.149 20.18-6.417 32.008 0 5.25 2.848 14.585 11.688 28.006 26.518 3.138 9.232 3.138 15.403 0 18.512-3.137 3.109-12.436 6.153-27.897 9.132l-25.615-18.638-21.505 9.506-5.502 28.018c-4.742 3.004-8.552 4.652-11.431 4.944-5.813.589-15.041.263-27.684-.978-3.996 10.334 5.445 13.54 6.107 17.548.663 4.01-.13 11.524 11.877 15.52 3.447 17.47 6.68 29.823 9.7 37.059 2.898 6.946 8.543 15.867 16.933 26.762h36.87l5.64 21.216c-7.993 10.795-7.993 17.552 0 20.273 11.988 4.08 15.532 5.56 21.91 9.577 8.411 5.297 13.582 14.716 25.044 21.266 10.789 6.165 25.816 15.954 45.08 29.367l37.566 6.076 10.018 17.216-15.027 24.304-46.081 11.645c-5.284 15.406-9.124 26.883-11.52 34.431-2.397 7.55-5.465 17.833-9.205 30.851l17.72 20.796 64.113 20.253 82.646-28.355 58.103-3.038c17.876 4.688 29.73 8.402 35.563 11.14 10.31 4.84 13.483 12.267 20.036 14.683 12.112 4.466 23.132 4.466 33.058 0h33.56c2.825 4.155 6.832 7.53 12.02 10.127 6.156 3.08 14.227.56 19.535 6.076 9.63 10.006 35.625 9.632 67.12 19.24 8.74 2.668 16.818 8.72 31.555 15.19 6.8 2.986 19.656 7.881 38.568 14.685l60.608-10.127c15.915-12.827 28.752-6.413 34.875-10.127 6.123-3.714 15.994-21.604 33.245-24.304 12.723 3.867 22.407 7.074 29.052 9.62 9.83 3.768 19.277 5.397 24.042 8.608 9.596 6.467 24.623 15.075 45.08 25.823 6.734-8.584 14.915-13.31 24.543-14.177 6.808-.614 12.528-4.266 30.185.183 4.878 1.228 12.18-2.714 21.908-11.829 7.331-2.05 14.51-.025 21.538 6.076 7.027 6.102 16.21 12.684 27.549 19.747l34.56-7.088c16.697 10.464 25.912 22.75 31.255 30.513 5.343 7.764 15.996 10.162 28.351 13.538 7.37-.658 18.01-6.47 28.333-10.127 5.58-1.977 24.7-6.787 37.054-3.411 17.698-9.452 24.386-14.817 37.409-22.918 3.966-2.468 20.102.575 35.95-5.064 5.89-2.096 13.07-8.003 21.538-17.722 9.168-8.714 10.649-12.862 15.84-15.962 7.046-4.208 17.098-11.488 20.883-16.443 5.618-7.357 4.202-16.44 9.92-24.81 6.64-9.722 20.306-18.555 24.984-23.798 10.193-11.425 11.671-1.262 25.545-13.671 4.53-4.052 12.604-21.305 26.705-32.583 3.927-3.141 13.62-11.234 29.394-11.468 12.907-5.747 23.927-10.641 33.059-14.684 8.534-3.778 21.649-6.722 32.97-9.283 5.083-1.15 17.334-4.412 27.637-3.882 8.794.453 29.786-5.032 35.627-5.872 9.444-1.359 12.787-2.296 26.984-2.736 5.866-.181 14.567-2.661 24.282-4.05 3.73-.534 10.883-6.012 17.547-6.552 4.799-.389 10.053-4.47 16.274-3.069 10.766-3.884 18.613-7.09 23.541-9.62 13.796-7.081 25.777-15.616 33.059-18.228 11.184-4.012 22.512-3.337 37.04-2.026 7.781-3.833 19.58-6.158 24.488-6.375 5.42-.24 6.715 5.861 13.237 6.454.536.049-1.759 1.947 11.765-.079 13.524-2.025.812 7.953 40.348 9.986 5.319.273 12.774-8.958 22.386-9.986 3.679-.393 8.743-2.025 13.217-10.82 4.475-8.796-.072-10.212 3.694-13.22 3.31-2.643 14.708 3.147 18.494 4.14 3.426-5.714 6.993-10.557 10.7-14.53 2.845-3.052 10.075-3.052 21.687 0 14.175-6.106 24.829-10.984 31.96-14.635 7.132-3.65 12.832-7.144 17.1-10.48l21.026-7.698 10.992-18.253c10.658-9.026 19.712-13.916 27.164-14.67 7.451-.755 14.069-.755 19.853 0l19.762-14.772 13.078-24.73 19.037-14.92 6.168-15.16c1.539-9.433 1.252-14.967-.861-16.603-2.113-1.635-9.007-4.256-20.683-7.86 6.682-5.25 11.228-11.97 13.638-20.158 1.156-3.925-7.228-9.44-6.515-15.872.331-2.987 5.369-.968 8.253-6.996 1.075-2.247-.746-7.845-5.464-16.795 6.079-5.664 7.9-11.072 5.464-16.224-1.236-2.614-3.858-5.774-7.865-9.48-2.594-2.4-3.944-6.513-4.05-12.34l-14.565-18.104 10.113-21.83h8.114l.388-31.852c4.782-.197 8.444-1.22 10.986-3.067 1.377-1 .9-5.296 3.047-7.817 1.21-1.422 4.049-3.255 8.513-5.5l-16.419-25.289 7.045-21.53c-2.235 4.861-4.004.83-5.307-12.094-.808-8.016 3.373-23.871 3.121-36.76-.102-5.26-2.964-14.082-8.585-26.465l17.276-33.973 2.87-15.035 13.267-7.15c1.387-5.027 1.387-9.72 0-14.078-1.388-4.358-5.81-12.64-13.268-24.85l13.379-20.268 18.069-70.768 25.106-14.407 32.23 15.165 6.862-30.077 26.41 12.132 26.669 69.631 138.04 54.088 32.055-9.857-15.55-21.61 20.241-13.27-8.34-14.153 62.635 27.044 6.776-27.55 54.295-24.642 39.092.632 28.407-29.571 27.452-5.055 49.17 8.593 23.02 6.192 42.307 40.566 9.295 37.532" stroke="#00C9FF" stroke-width="6" stroke-linecap="round" stroke-linejoin="round"/><path stroke="#00C9FF" stroke-width="6" d="M7603.584 2168.735l26.58-4.046 3.17-13.29h14.72l-4.118-14.399 7.414-16.03H7664l10-13.97 73.9 30 27.914 21 16.725 19.225"/><g transform="translate(7664 2078)"><ellipse fill="#F0CD57" cx="30" cy="29" rx="20" ry="19"/><ellipse stroke="#F0CD57" stroke-width="2" cx="30.5" cy="29.5" rx="30.5" ry="29.5"/></g><g transform="translate(6901 2452)"><circle fill="#F0CD57" cx="42" cy="42" r="28"/><circle stroke="#F0CD57" stroke-width="2" cx="42.5" cy="42.5" r="42.5"/></g><g transform="translate(4391 2374)"><g transform="translate(225 70)"><circle fill="#F0CD57" cx="42" cy="42" r="28"/><circle stroke="#F0CD57" stroke-width="2" cx="42.5" cy="42.5" r="42.5"/></g><g transform="translate(913 521)"><circle fill="#F0CD57" cx="23.5" cy="23.5" r="15.5"/><circle stroke="#F0CD57" stroke-width="2" cx="23.5" cy="23.5" r="23.5"/></g><g transform="translate(1276 555)"><circle fill="#F0CD57" cx="23.5" cy="23.5" r="15.5"/><circle stroke="#F0CD57" stroke-width="2" cx="23.5" cy="23.5" r="23.5"/></g><g transform="translate(77 38)"><circle fill="#F0CD57" cx="23.5" cy="23.5" r="15.5"/><circle stroke="#F0CD57" stroke-width="2" cx="23.5" cy="23.5" r="23.5"/></g><g transform="translate(835 522)"><ellipse fill="#F0CD57" cx="30" cy="29" rx="20" ry="19"/><ellipse stroke="#F0CD57" stroke-width="2" cx="30.5" cy="29.5" rx="30.5" ry="29.5"/></g><circle fill="#F0CD57" cx="600" cy="521" r="10"/><circle fill="#F0CD57" cx="1196" cy="559" r="10"/><circle fill="#F0CD57" cx="680" cy="531" r="10"/><circle fill="#EBD435" cx="792" cy="521" r="10"/><circle fill="#F0CD57" cx="1012" cy="575" r="10"/><circle fill="#F0CD57" cx="10" cy="10" r="10"/><circle fill="#F0CD57" cx="1110" cy="591" r="10"/><circle fill="#F0CD57" cx="164" cy="79" r="6"/><circle fill="#F0CD57" cx="630.5" cy="402.5" r="15.5"/><circle stroke="#F0CD57" stroke-width="2" cx="630.5" cy="402.5" r="23.5"/><circle fill="#F0CD57" cx="360" cy="91" r="6"/><circle fill="#F0CD57" cx="320" cy="172" r="10"/></g><g transform="translate(2372 368)"><ellipse fill="#F0CD57" cx="30" cy="29" rx="20" ry="19"/><ellipse stroke="#F0CD57" stroke-width="2" cx="30.5" cy="29.5" rx="30.5" ry="29.5"/></g><g transform="translate(1189 162)"><ellipse fill="#F0CD57" cx="30" cy="29" rx="20" ry="19"/><ellipse stroke="#F0CD57" stroke-width="2" cx="30.5" cy="29.5" rx="30.5" ry="29.5"/></g></g></svg>