<svg height="505" viewBox="0 0 1322 505" width="1322" xmlns="http://www.w3.org/2000/svg"><g fill="none" fill-rule="evenodd" transform="translate(2.752742)"><path d="m0 96.8241853 6.36714851-3.7333841 6.30926539 1.9289151 3.8347599-1.5140946 2.6770965 2.4681817 8.3641178-.9333461 8.9718911-15.2239106 10.3755579.4977845 2.300856-3.5259738 11.894991-4.8119173 3.0822788-5.0815505h.1663615l4.587241-4.500802 20.9247654-5.7660043.8812772-8.4704354 14.390269-7.7274652 10.231232-7.3164298c11.170067-.8579733 18.545427-1.5704346 22.126079-2.137384 5.365511-.8495584 7.903412.8686807 10.563955.4110354 8.630776-1.4845972 13.826341-2.6620275 16.303427-3.2882831 4.76903-1.2057038 7.763537-2.5484194 8.983521-4.0281468l2.24588-6.9053944 3.743134-1.7263487c1.568217-.4427043 2.70502-.6345208 3.41041-.5754495 1.767712.1480329 3.334561 1.1649305 4.159038.5754495 1.317978-.9423221 2.593416-1.7643928 3.826314-2.4662123v-1.5619344l-1.663615-1.64414157c2.732274-.40251783 3.75817-1.2245886 3.077688-2.4662123-.680482-1.24162371-1.15184-2.4473275-1.414073-3.61711139l7.486268.32882831c3.689737-.44364094 6.434702-.36143386 8.234894.24662123 1.800191.6080551 4.208991 2.26664764 7.226399 4.97577763l1.757121-1.35866624 4.990845 2.13738403c-.131077 1.3846014.34028 2.2888792 1.414073 2.7128335 1.436644.5672149 1.092805 3.1428657 2.079519 3.4526972 2.092964.6571984 2.924772.6571984 2.495422 0 .977412.0285207 1.726039.0285207 2.24588 0 .519842-.0285206 1.323922-.3573489 2.412242-.9864849l2.24588.2466212 4.159038 2.7950407c.318535.5715595.54035 1.064802.665446 1.4797273.250903.8322158.306162 2.2239871.831807 2.5484194 1.378138.8505977 2.141025 1.0897661 3.077688.9042779.624441-.1236589 1.209736-.7441507 1.755884-1.8614754l4.149949.1351267c1.497253.8220708 2.439969 1.3975204 2.828145 1.7263487.388177.3288283.661179.8563066.819007 1.5824349.875693.7883265 1.489952 1.4391496 1.842777 1.9524694.352825.5133197.713275 1.2805857 1.08135 2.3017981.991154 1.169225 1.407058 1.9638934 1.247711 2.3840053-.385811 1.0171793-1.535596.9646587-1.580434 1.3153132-.11467.8967833.849331.5926162.914988.8220708.237392.8296188 1.713339-1.3117737 1.913157-.8220708.361461.8858448.63873 1.1598684.831808.8220708.609992-.3288284 1.109077-.1918166 1.497253.4110353.388177.6028519.499085.9042779.332723.9042779-.412196.5677228-.634012 1.0335629-.665446 1.3975203s.079474.5557739.332723.5754495c.7209-.2740236 1.136804-.3562306 1.247712-.2466212.166361.1644141-.047857 1.7419527.332723 1.9729698.707049.4291883 1.427949.5936024 2.162699.4932425l1.829977 1.8907628c2.468439 1.8344215 4.132054 2.9031135 4.990844 3.206076.719314.2537582 1.305243-.6454492 1.74859-.4979199.771351.2566766 1.463926.4774546 2.077725.662334 2.090684.6297249 3.56021.9311509 4.408579.9042779.831808 1.2605085 1.913158 1.9181651 3.24405 1.9729698s2.273607.0274024 2.828145-.0822071c2.778657.3280761 4.289067.2984242 4.53123-.0889559.30909-.4944404-.612514-.2461222-.124481.0729878.593706.3882064.984583.5588837 1.172632.512032.481408-.1199413.639418-.9655629.919443-.9014005.709668.1763591 1.640348 1.2950819 1.967095 1.3761504.920232.2283164 1.462596.3692363 1.62709.4227597.501514.1631835.363999 1.2440753.835857 1.468652 1.319018.6277758 1.514596.9658469 2.423985 1.3870603 1.99567.9243594 2.552908 1.1419374 1.671714.6527342.278619.7615233.696548 1.4686521 1.253786 2.1213863.835857.9791014 1.504542 1.3870603 2.006057 2.0397945.501514.6527343 1.348313.2208567 1.588128.4895507.648372.7264496.947404.7570202 1.253785 1.0606931.718011.7116631.734013.8645055 1.420957 1.5502439 1.299424 1.297142 2.347062 1.5300682 1.838886.4079589-.071297-.1574308-.610093-.2858788-1.086614-.734326-.086093-.0810205-.141817-.2714013-.167172-.5711425.092873-.2719726.260045-.4079589.501515-.4079589.241469 0 .575812.1631835 1.003028.4895507.454374.0502051.788717.0230079 1.003028-.0815918.214312-.1045997.492931-.3765723.835857-.8159178.348616-.0494912.599373.0864951.752272.4079589.152898.3214638.208622.7022254.167171 1.1422849l.445306.8486673c-.1899.4669563-.199026.8639987-.027377 1.1911272.171648.3271286.478129.7622847.919442 1.3054685.335236.0424114.585993-.0391804.752272-.2447753.166278-.205595.222002-.5591594.167171-1.0606932.52064.0345414.910707.0345414 1.1702 0 .259493-.0345413.454527-.2249221.5851-.5711424l1.1702.8975095c.745125 1.1572589 1.274501 2.0819657 1.588128 2.7741206.313627.6921548.425075 1.1817055.334343 1.468652-.501061 1.4496367-.668233 2.4287381-.501514 2.9373041.166718.5085661.77968.8893277 1.838885 1.142285 2.770235.677154 4.60912 1.0579156 5.516656 1.1422849.907537.0843693 1.938427-.4595759 3.092671-1.6318356l11.766865.9877364 2.805842 4.3059555 14.231697 4.4692145 5.626149 5.2446946 10.297732-2.1427741 3.239735-3.8569933 14.014751 5.4895831 1.504163-3.4488459 11.642801-1.428516 5.886484-5.3671389.520672-6.3262853 5.828632-4.7549177 1.894667 2.2448109 6.088968-1.7550339 7.4485 2.8774394 6.392693-.7958875 6.190209 3.6325122 21.882681-1.0611833 8.186118 11.632202 10.702699 7.9180603 14.000287 1.5305529 9.807672-4.2191148v1.2191148l3.714053 2.8050398 6.872462.4376658 1.798538 6.32626 5.614947 5.4310341v2h4.091442c2.381745 2.267402 3.968223 3.953017 4.759433 5.056848 1.440946 2.010286 1.988544 4.435087 2.83896 5.471343.973303 1.185996 3.096107.712432 4.842932 2.238277.691034.603615 1.609521 2.178699 2.755462 4.725251l2.504964-.580294c2.843134 2.896306 5.097602 4.858252 6.763405 5.885839s3.81938 1.78484 6.460731 2.271759l16.522789-1.615861 14.507453 2.162673 10.186857-2.818571 14.184557.488016 4.602679-5.627762 10.854847.497394 2.742334 4.626723 5.935371-5.120393 6.445784 3.86128-.335414 12.192409-4.710381 12.67507 1.487489 4.092117-2.070818 6.274579-4.987461 2.749063-5.264543 18.865708 1.574988 8.037337 4.506215 4.448866-2.843728 18.865708 5.424958 11.038222-9.610342 8.834776 4.039552 11.772705-2.362482 7.659604 2.435398 7.955494.218748 11.036125-5.322875 1.930639-10.354087 14.12305 8.472851 9.926006h.025533 3.802316l-1.779807 2.367247 1.779807 2.367247-3.155113 1.959101-.970804 4.08146h2.34611l3.155113-1.142808v3.183538l-4.530419.897922 3.155113 2.612134 3.883216-2.612134 1.375306 3.591685-5.218839 1.519855 3.82453 4.189929-4.017132 4.500066-.687865 4.578113 4.03089 2.877496 3.714471-2.156582 5.035173 4.210468-1.196885 2.11345-4.815056-.616166-.701623 4.068749 2.476315 3.491608-3.439326 3.26568 16.618823 11.664023 10.992085.987919v.912193l8.632968-3.904908 2.649077 3.911379 14.664018-.862186 3.387344-4.056478 7.57086 7.820654 13.694137-.039955 10.162033 12.236725.086855 3.406684-3.792667 1.577169-.550082 3.68006 5.095493 7.801728 5.037589 3.238452 63.986856 21.594864-6.624481-19.665413 3.840161 4.289318 11.433864 1.513878-1.649544 9.362217 8.064662-.558639 19.383258 2.886918 5.550237 10.765341 3.804742 4.2683 2.93065-1.114381 7.726035-15.307759 9.540254-6.201913c4.010096 4.262343 7.31272 7.38409 9.907872 9.365241 1.557944 1.189341 3.353574-1.067686 5.319146 0 .872394.473879 2.423811 1.944549 4.654252 4.412011.521389 1.536114.521389 2.562808 0 3.080083-.521388.517274-2.066761 1.023758-4.636119 1.519452l-4.256827-3.101117-3.573801 1.581665-.914228 4.661747h-4.654253c-.664113 1.719364-.941152 2.912549-.831116 3.579555.110036.667007 1.162783 1.33297 3.158242 1.997892v6.909375l4.571141 4.578502 5.568481.9157v5.660693c0 2.10477-2.92935-3.39404-.937109-2.715047 1.992241.678994 3.518313 1.352593 4.578215 2.020798 1.397919.881305 2.257113 2.448555 4.161963 3.538293 1.79296 1.025727 4.290138 2.654465 7.491534 4.886213l6.242944 1.010941 1.664786 2.864332-2.497178 4.043763-7.658012 1.937636c-.878085 2.563134-1.516253 4.472688-1.914503 5.728665-.398251 1.255976-.908105 2.966972-1.529562 5.132988l2.944629 3.460008 10.654626 3.369802 13.734478-4.717723 9.655754-.505471c2.970752.780046 4.940747 1.397843 5.909988 1.853392 1.713428.805321 2.240614 2.041159 3.32957 2.443106 2.012945.743004 3.844209.743004 5.493791 0h5.577031c.469521.691273 1.135435 1.252907 1.997742 1.684902 1.022844.51242 2.36416.093308 3.246332 1.01094 1.600431 1.664764 5.920318 1.602578 11.154061 3.201313 1.45257.443712 2.795072 1.45081 5.244073 2.527351 1.130028.496743 3.266503 1.311111 6.409423 2.443107l10.071951-1.684901c2.644946-2.134079 4.47621-3.510082 5.493791-4.128008 1.017582-.617926 2.959831-1.151478 5.826749-1.600656 2.114346.643414 3.723638 1.176966 4.827877 1.600656 1.63372.626849 3.203625.89785 3.995484 1.432166 1.594691 1.076036 4.091866 2.508202 7.491536 4.296498 1.11913-1.428229 2.47871-2.214517 4.07872-2.358862 1.13125-.102055 2.08191-.70972 5.0162.030397.81061.20446 2.02417-.451551 3.64068-1.968033 1.21842-.341231 2.41152-.00425 3.57929 1.010941 1.16778 1.015191 2.69383 2.110377 4.57816 3.285557l5.74351-1.179431c2.77464 1.741065 4.60591 3.257476 5.49379 4.549233.88789 1.291758 2.35845 2.218454 4.41168 2.780087 1.88676-.16849 3.66253-.730124 5.32732-1.684901 1.66478-.954777 3.52379-1.151349 5.57703-.589715 2.94112-1.572575 5.49379-3.032822 7.65801-4.380743.65914-.410525 1.86123.685475 4.49492-.252736.97895-.348735 2.17205-1.331594 3.57929-2.948577 1.52351-1.449851 2.71661-2.43271 3.57929-2.948577 1.17092-.700194 2.61746-3.303581 3.24633-4.128008 2.01813-2.645693 3.63096-4.779289 5.07759-6.402624 1.69393-1.900842 1.93961-.20986 4.2452-2.274617.75273-.674098 2.06836-4.610466 4.41169-6.486869.6527-.52265 2.28974-.803467 4.91111-.842451 2.14495-.956086 3.97622-1.770455 5.49379-2.443107 1.41828-.628636 4.02846-2.522483 5.90999-2.948577.84457-.191262 2.44983.67001 4.16196.758206 1.4614.075279 5.35548-1.629305 6.32619-1.769147 1.56944-.226094 1.71938.410072 4.07872.336981.97479-.030199 2.9637-1.116802 4.57816-1.347921.61986-.088737 1.22332-1.089659 2.3307-1.179431.79748-.06465 1.71312.019596 2.7469.252735 1.78916-.646217 3.09324-1.179769 3.91224-1.600656 2.29268-1.178209 4.2836-2.59821 5.49379-3.032822 1.85866-.667494 3.99514-.892148 6.40943-.673961 1.29313-.637824 2.34749-.974804 3.16309-1.01094.90066-.039906.91391.912322 1.99774 1.01094.08918.008115 1.33183-.33698 3.57929-.67396s-.82669 1.767832 5.74351 2.106126c.88393.045513 2.31492-.924204 3.91224-1.095185.61135-.065441 1.58247.103049 2.91338.50547 1.3309.40242-.7204-1.914688.62448-1.561765l3.20495.841043 15.53388-7.106812 4.14333-5.151388 9.03882-2.83852 2.3373-5.277544 4.11446-2.964676.28873-4.688814-2.71265-2.102608 2.12075-12.132043-4.33101-6.118587.75071-2.922624.5919-2.607233 1.18381-1.114382.46342-3.238015 3.52111-2.544155-2.61304-4.772918 1.2993-3.21699-1.58804-13.666947 2.72854-7.211942v-.168209l2.48311-1.682086-2.09332-6.896551 1.83346-4.142137 3.00283-11.7746 4.17221-2.396972 5.35601 2.523128 1.1405-5.004205 4.38876 2.018503 4.43206 11.585366 22.93991 8.999159 5.32714-1.640034-2.58416-3.595458 3.36375-2.207738-1.38593-2.35492 10.40886 4.49958 1.12606-4.583684 9.02294-4.100084 6.49651.10513 4.7208-4.920101 4.562-.841043 8.17117 1.429773 3.82572 1.030278 7.03067 6.749369 1.54473 6.244743" stroke="#13b9c5" stroke-linecap="round" stroke-linejoin="round" stroke-width="4"/><g fill="#ec8484"><ellipse cx="230.247258" cy="19" rx="20" ry="19"/><ellipse cx="460.247258" cy="72" rx="20" ry="19"/><ellipse cx="870.247258" cy="425" rx="20" ry="19"/><ellipse cx="1201.247258" cy="396" rx="20" ry="19"/><ellipse cx="1289.247258" cy="366" rx="20" ry="19"/></g></g></svg>