<?xml version="1.0" encoding="UTF-8"?>
<svg width="1322px" height="505px" viewBox="0 0 1322 505" version="1.1" xmlns="http://www.w3.org/2000/svg" xmlns:xlink="http://www.w3.org/1999/xlink">
    <!-- Generator: Sketch 57.1 (83088) - https://sketch.com -->
    <title>river</title>
    <desc>Created with Sketch.</desc>
    <g id="Main-Map" stroke="none" stroke-width="1" fill="none" fill-rule="evenodd">
        <g id="Full-Danube-Map" transform="translate(-627.000000, -494.000000)">
            <g id="Group" transform="translate(560.000000, 270.000000)">
                <g id="river" transform="translate(69.752742, 224.000000)">
                    <path d="M4.54747351e-13,96.8241853 L6.36714851,93.0908012 L12.6764139,95.0197163 L16.5111738,93.5056217 L19.1882703,95.9738034 L27.5523881,95.0404573 L36.5242792,79.8165467 L46.8998371,80.3143312 L49.2006931,76.7883574 L61.0956841,71.9764401 L64.1779629,66.8948896 L64.3443244,66.8948896 L68.9315654,62.3940876 L89.8563308,56.6280833 L90.737608,48.1576479 L105.127877,40.4301827 L115.359109,33.1137529 C126.529176,32.2557796 133.904536,31.5433183 137.485188,30.9763689 C142.850699,30.1268105 145.3886,31.8450496 148.049143,31.3874043 C156.679919,29.9028071 161.875484,28.7253768 164.35257,28.0991212 C169.1216,26.8934174 172.116107,25.5507018 173.336091,24.0709744 L175.581971,17.16558 L179.325105,15.4392313 C180.893322,14.996527 182.030125,14.8047105 182.735515,14.8637818 C184.503227,15.0118147 186.070076,16.0287123 186.894553,15.4392313 C188.212531,14.4969092 189.487969,13.6748385 190.720867,12.973019 L190.720867,11.4110846 L189.057252,9.76694303 C191.789526,9.3644252 192.815422,8.54235443 192.13494,7.30073073 C191.454458,6.05910702 190.9831,4.85340323 190.720867,3.68361934 L198.207135,4.01244765 C201.896872,3.56880671 204.641837,3.65101379 206.442029,4.25906888 C208.24222,4.86712398 210.65102,6.52571652 213.668428,9.23484651 L215.425549,7.87618027 L220.416394,10.0135643 C220.285317,11.3981657 220.756674,12.3024435 221.830467,12.7263978 C223.267111,13.2936127 222.923272,15.8692635 223.909986,16.179095 C226.00295,16.8362934 226.834758,16.8362934 226.405408,16.179095 C227.38282,16.2076157 228.131447,16.2076157 228.651288,16.179095 C229.17113,16.1505744 229.97521,15.8217461 231.06353,15.1926101 L233.30941,15.4392313 L237.468448,18.234272 C237.786983,18.8058315 238.008798,19.299074 238.133894,19.7139993 C238.384797,20.5462151 238.440056,21.9379864 238.965701,22.2624187 C240.343839,23.1130164 241.106726,23.3521848 242.043389,23.1666966 C242.66783,23.0430377 243.253125,22.4225459 243.799273,21.3052212 L247.949222,21.4403479 C249.446475,22.2624187 250.389191,22.8378683 250.777367,23.1666966 C251.165544,23.4955249 251.438546,24.0230032 251.596374,24.7491315 C252.472067,25.537458 253.086326,26.1882811 253.439151,26.7016009 C253.791976,27.2149206 254.152426,27.9821866 254.520501,29.003399 C255.511655,30.172624 255.927559,30.9672924 255.768212,31.3874043 C255.382401,32.4045836 254.232616,32.352063 254.187778,32.7027175 C254.073108,33.5995008 255.037109,33.2953337 255.102766,33.5247883 C255.340158,34.3544071 256.816105,32.2130146 257.015923,32.7027175 C257.377384,33.5885623 257.654653,33.8625859 257.847731,33.5247883 C258.457723,33.1959599 258.956808,33.3329717 259.344984,33.9358236 C259.733161,34.5386755 259.844069,34.8401015 259.677707,34.8401015 C259.265511,35.4078243 259.043695,35.8736644 259.012261,36.2376218 C258.980827,36.6015792 259.091735,36.7933957 259.344984,36.8130713 C260.065884,36.5390477 260.481788,36.4568407 260.592696,36.5664501 C260.759057,36.7308642 260.544839,38.3084028 260.925419,38.5394199 C261.632468,38.9686082 262.353368,39.1330223 263.088118,39.0326624 L264.918095,40.9234252 C267.386534,42.7578467 269.050149,43.8265387 269.908939,44.1295012 C270.628253,44.3832594 271.214182,43.484052 271.657529,43.6315813 C272.42888,43.8882579 273.121455,44.1090359 273.735254,44.2939153 C275.825938,44.9236402 277.295464,45.2250662 278.143833,45.1981932 C278.975641,46.4587017 280.056991,47.1163583 281.387883,47.171163 C282.718775,47.2259677 283.66149,47.1985654 284.216028,47.0889559 C286.994685,47.417032 288.505095,47.3873801 288.747258,47 C289.056348,46.5055596 288.134744,46.7538778 288.622777,47.0729878 C289.216483,47.4611942 289.60736,47.6318715 289.795409,47.5850198 C290.276817,47.4650785 290.434827,46.6194569 290.714852,46.6836193 C291.42452,46.8599784 292.3552,47.9787012 292.681947,48.0597697 C293.602179,48.2880861 294.144543,48.429006 294.309037,48.4825294 C294.810551,48.6457129 294.673036,49.7266047 295.144894,49.9511814 C296.463912,50.5789572 296.65949,50.9170283 297.568879,51.3382417 C299.564549,52.2626011 300.121787,52.4801791 299.240593,51.9909759 C299.519212,52.7524992 299.937141,53.459628 300.494379,54.1123622 C301.330236,55.0914636 301.998921,55.4994225 302.500436,56.1521567 C303.00195,56.804891 303.848749,56.3730134 304.088564,56.6417074 C304.736936,57.368157 305.035968,57.3987276 305.342349,57.7024005 C306.06036,58.4140636 306.076362,58.566906 306.763306,59.2526444 C308.06273,60.5497864 309.110368,60.7827126 308.602192,59.6606033 C308.530895,59.5031725 307.992099,59.3747245 307.515578,58.9262773 C307.429485,58.8452568 307.373761,58.654876 307.348406,58.3551348 C307.441279,58.0831622 307.608451,57.9471759 307.849921,57.9471759 C308.09139,57.9471759 308.425733,58.1103594 308.852949,58.4367266 C309.307323,58.4869317 309.641666,58.4597345 309.855977,58.3551348 C310.070289,58.2505351 310.348908,57.9785625 310.691834,57.539217 C311.04045,57.4897258 311.291207,57.6257121 311.444106,57.9471759 C311.597004,58.2686397 311.652728,58.6494013 311.611277,59.0894608 L312.056583,59.9381281 C311.866683,60.4050844 311.857557,60.8021268 312.029206,61.1292553 C312.200854,61.4563839 312.507335,61.89154 312.948648,62.4347238 C313.283884,62.4771352 313.534641,62.3955434 313.70092,62.1899485 C313.867198,61.9843535 313.922922,61.6307891 313.868091,61.1292553 C314.388731,61.1637967 314.778798,61.1637967 315.038291,61.1292553 C315.297784,61.094714 315.492818,60.9043332 315.623391,60.5581129 L316.793591,61.4556224 C317.538716,62.6128813 318.068092,63.5375881 318.381719,64.229743 C318.695346,64.9218978 318.806794,65.4114485 318.716062,65.698395 C318.215001,67.1480317 318.047829,68.1271331 318.214548,68.6356991 C318.381266,69.1442652 318.994228,69.5250268 320.053433,69.7779841 C322.823668,70.4551381 324.662553,70.8358997 325.570089,70.920269 C326.477626,71.0046383 327.508516,70.4606931 328.66276,69.2884334 L340.429625,70.2761698 L343.235467,74.5821253 L357.467164,79.0513398 L363.093313,84.2960344 L373.391045,82.1532603 L376.63078,78.296267 L390.645531,83.7858501 L392.149694,80.3370042 L403.792495,78.9084882 L409.678979,73.5413493 L410.199651,67.215064 L416.028283,62.4601463 L417.92295,64.7049572 L424.011918,62.9499233 L431.460418,65.8273627 L437.853111,65.0314752 L444.04332,68.6639874 L465.926001,67.6028041 L474.112119,79.2350061 L484.814818,87.1530664 L498.815105,88.6836193 L508.622777,84.4645045 L508.622777,85.6836193 L512.33683,88.4886591 L519.209292,88.9263249 L521.00783,95.2525849 L526.622777,100.683619 L526.622777,102.683619 L530.714219,102.683619 C533.095964,104.951021 534.682442,106.636636 535.473652,107.740467 C536.914598,109.750753 537.462196,112.175554 538.312612,113.21181 C539.285915,114.397806 541.408719,113.924242 543.155544,115.450087 C543.846578,116.053702 544.765065,117.628786 545.911006,120.175338 L548.41597,119.595044 C551.259104,122.49135 553.513572,124.453296 555.179375,125.480883 C556.845178,126.50847 558.998755,127.265723 561.640106,127.752642 L578.162895,126.136781 L592.670348,128.299454 L602.857205,125.480883 L617.041762,125.968899 L621.644441,120.341137 L632.499288,120.838531 L635.241622,125.465254 L641.176993,120.344861 L647.622777,124.206141 L647.287363,136.39855 L642.576982,149.07362 L644.064471,153.165737 L641.993653,159.440316 L637.006192,162.189379 L631.741649,181.055087 L633.316637,189.092424 L637.822852,193.54129 L634.979124,212.406998 L640.404082,223.44522 L630.79374,232.279996 L634.833292,244.052701 L632.47081,251.712305 L634.906208,259.667799 L635.124956,270.703924 L629.802081,272.634563 L619.447994,286.757613 L627.920845,296.683619 L627.946378,296.683619 L631.748694,296.683619 L629.968887,299.050866 L631.748694,301.418113 L628.593581,303.377214 L627.622777,307.458674 L629.968887,307.458674 L633.124,306.315866 L633.124,309.499404 L628.593581,310.397326 L631.748694,313.00946 L635.63191,310.397326 L637.007216,313.989011 L631.788377,315.508866 L635.612907,319.698795 L631.595775,324.198861 L630.90791,328.776974 L634.9388,331.65447 L638.653271,329.497888 L643.688444,333.708356 L642.491559,335.821806 L637.676503,335.20564 L636.97488,339.274389 L639.451195,342.765997 L636.011869,346.031677 L652.630692,357.6957 L663.622777,358.683619 L663.622777,359.595812 L672.255745,355.690904 L674.904822,359.602283 L689.56884,358.740097 L692.956184,354.683619 L700.527044,362.504273 L714.221181,362.464318 L724.383214,374.701043 L724.470069,378.107727 L720.677402,379.684896 L720.12732,383.364956 L725.222813,391.166684 L730.260402,394.405136 L794.247258,416 L787.622777,396.334587 L791.462938,400.623905 L802.896802,402.137783 L801.247258,411.5 L809.31192,410.941361 L828.695178,413.828279 L834.245415,424.59362 L838.050157,428.86192 L840.980807,427.747539 L848.706842,412.43978 L858.247096,406.237867 C862.257192,410.50021 865.559816,413.621957 868.154968,415.603108 C869.712912,416.792449 871.508542,414.535422 873.474114,415.603108 C874.346508,416.076987 875.897925,417.547657 878.128366,420.015119 C878.649755,421.551233 878.649755,422.577927 878.128366,423.095202 C877.606978,423.612476 876.061605,424.11896 873.492247,424.614654 L869.23542,421.513537 L865.661619,423.095202 L864.747391,427.756949 L860.093138,427.756949 C859.429025,429.476313 859.151986,430.669498 859.262022,431.336504 C859.372058,432.003511 860.424805,432.669474 862.420264,433.334396 L862.420264,440.243771 L866.991405,444.822273 L872.559886,445.737973 L872.559886,451.398666 C872.559886,453.503436 869.630536,448.004626 871.622777,448.683619 C873.615018,449.362613 875.14109,450.036212 876.200992,450.704417 C877.598911,451.585722 878.458105,453.152972 880.362955,454.24271 C882.155915,455.268437 884.653093,456.897175 887.854489,459.128923 L894.097433,460.139864 L895.762219,463.004196 L893.265041,467.047959 L885.607029,468.985595 C884.728944,471.548729 884.090776,473.458283 883.692526,474.71426 C883.294275,475.970236 882.784421,477.681232 882.162964,479.847248 L885.107593,483.307256 L895.762219,486.677058 L909.496697,481.959335 L919.152451,481.453864 C922.123203,482.23391 924.093198,482.851707 925.062439,483.307256 C926.775867,484.112577 927.303053,485.348415 928.392009,485.750362 C930.404954,486.493366 932.236218,486.493366 933.8858,485.750362 L939.462831,485.750362 C939.932352,486.441635 940.598266,487.003269 941.460573,487.435264 C942.483417,487.947684 943.824733,487.528572 944.706905,488.446204 C946.307336,490.110968 950.627223,490.048782 955.860966,491.647517 C957.313536,492.091229 958.656038,493.098327 961.105039,494.174868 C962.235067,494.671611 964.371542,495.485979 967.514462,496.617975 L977.586413,494.933074 C980.231359,492.798995 982.062623,491.422992 983.080204,490.805066 C984.097786,490.18714 986.040035,489.653588 988.906953,489.20441 C991.021299,489.847824 992.630591,490.381376 993.73483,490.805066 C995.36855,491.431915 996.938455,491.702916 997.730314,492.237232 C999.325005,493.313268 1001.82218,494.745434 1005.22185,496.53373 C1006.34098,495.105501 1007.70056,494.319213 1009.30057,494.174868 C1010.43182,494.072813 1011.38248,493.465148 1014.31677,494.205265 C1015.12738,494.409725 1016.34094,493.753714 1017.95745,492.237232 C1019.17587,491.896001 1020.36897,492.232982 1021.53674,493.248173 C1022.70452,494.263364 1024.23057,495.35855 1026.1149,496.53373 L1031.85841,495.354299 C1034.63305,497.095364 1036.46432,498.611775 1037.3522,499.903532 C1038.24009,501.19529 1039.71065,502.121986 1041.76388,502.683619 C1043.65064,502.515129 1045.42641,501.953495 1047.0912,500.998718 C1048.75598,500.043941 1050.61499,499.847369 1052.66823,500.409003 C1055.60935,498.836428 1058.16202,497.376181 1060.32624,496.02826 C1060.98538,495.617735 1062.18747,496.713735 1064.82116,495.775524 C1065.80011,495.426789 1066.99321,494.44393 1068.40045,492.826947 C1069.92396,491.377096 1071.11706,490.394237 1071.97974,489.87837 C1073.15066,489.178176 1074.5972,486.574789 1075.22607,485.750362 C1077.2442,483.104669 1078.85703,480.971073 1080.30366,479.347738 C1081.99759,477.446896 1082.24327,479.137878 1084.54886,477.073121 C1085.30159,476.399023 1086.61722,472.462655 1088.96055,470.586252 C1089.61325,470.063602 1091.25029,469.782785 1093.87166,469.743801 C1096.01661,468.787715 1097.84788,467.973346 1099.36545,467.300694 C1100.78373,466.672058 1103.39391,464.778211 1105.27544,464.352117 C1106.12001,464.160855 1107.72527,465.022127 1109.4374,465.110323 C1110.8988,465.185602 1114.79288,463.481018 1115.76359,463.341176 C1117.33303,463.115082 1117.48297,463.751248 1119.84231,463.678157 C1120.8171,463.647958 1122.80601,462.561355 1124.42047,462.330236 C1125.04033,462.241499 1125.64379,461.240577 1126.75117,461.150805 C1127.54865,461.086155 1128.46429,461.170401 1129.49807,461.40354 C1131.28723,460.757323 1132.59131,460.223771 1133.41031,459.802884 C1135.70299,458.624675 1137.69391,457.204674 1138.9041,456.770062 C1140.76276,456.102568 1142.89924,455.877914 1145.31353,456.096101 C1146.60666,455.458277 1147.66102,455.121297 1148.47662,455.085161 C1149.37728,455.045255 1149.39053,455.997483 1150.47436,456.096101 C1150.56354,456.104216 1151.80619,455.759121 1154.05365,455.422141 C1156.30111,455.085161 1153.22696,457.189973 1159.79716,457.528267 C1160.68109,457.57378 1162.11208,456.604063 1163.7094,456.433082 C1164.32075,456.367641 1165.29187,456.536131 1166.62278,456.938552 C1167.95368,457.340972 1165.90238,455.023864 1167.24726,455.376787 L1170.45221,456.21783 L1185.98609,449.111018 L1190.12942,443.95963 L1199.16824,441.12111 L1201.50554,435.843566 L1205.62,432.87889 L1205.90873,428.190076 L1203.19608,426.087468 L1205.31683,413.955425 L1200.98582,407.836838 L1201.73653,404.914214 L1202.32843,402.306981 L1203.51224,401.192599 L1203.97566,397.954584 L1207.49677,395.410429 L1204.88373,390.637511 L1206.18303,387.420521 L1204.59499,373.753574 L1207.32353,366.541632 L1207.32353,366.373423 L1209.80664,364.691337 L1207.71332,357.794786 L1209.54678,353.652649 L1212.54961,341.878049 L1216.72182,339.481077 L1222.07783,342.004205 L1223.21833,337 L1227.60709,339.018503 L1232.03915,350.603869 L1254.97906,359.603028 L1260.3062,357.962994 L1257.72204,354.367536 L1261.08579,352.159798 L1259.69986,349.804878 L1270.10872,354.304458 L1271.23478,349.720774 L1280.25772,345.62069 L1286.75423,345.72582 L1291.47503,340.805719 L1296.03703,339.964676 L1304.2082,341.394449 L1308.03392,342.424727 L1315.06459,349.174096 L1316.60932,355.418839" id="Stroke-1" stroke="#13B9C5" stroke-width="4" stroke-linecap="round" stroke-linejoin="round"></path>
                    <g id="Hotspots" transform="translate(210.247258, 0.000000)" fill="#EC8484">
                        <ellipse id="Oval" cx="20" cy="19" rx="20" ry="19"></ellipse>
                        <ellipse id="Oval" cx="250" cy="72" rx="20" ry="19"></ellipse>
                        <ellipse id="Oval" cx="660" cy="425" rx="20" ry="19"></ellipse>
                        <ellipse id="Oval" cx="991" cy="396" rx="20" ry="19"></ellipse>
                        <ellipse id="Oval" cx="1079" cy="366" rx="20" ry="19"></ellipse>
                    </g>
                </g>
            </g>
        </g>
    </g>
</svg>