<svg xmlns="http://www.w3.org/2000/svg" viewBox="0 0 1440 811"><path d="M-71.33 625.223l-.055.05.042-.038.013-.013zM-90.175 474.54l-.21.192.044-.037.165-.155zm.08-.075l-.08.075.06-.054.02-.02zM1137 387h-4v5.816c.002-2.878.078-5.696 3.76-5.813l.24-.004zm-13.174-69h-.026l-9.597 9.6c0 3.03-2.875 3.19-3.177 3.2H1111v3.2h9.6c0-3.2 3.2-3.2 3.2-3.2 0-3.2 3.2-6.4 3.2-9.6 0-3.03-2.872-3.19-3.174-3.2zM-27 323h-9c0 3.333-3 6.667-6 6.667 3 0 3 0 3 3.333 3-3.333 9-3.333 12-3.333h3c0-3.333 0-6.667-3-6.667zm193.692-103.16l-3.13 3.14c6.16 0 6.256 0 3.27-2.998l-.142-.142zM190 215h-4v6c0-3 4-3 4-6zm-21.008-4.53l-.02.338c-.217 3.253-.978 6.416-2.28 9.032l6.257-6.278c0-2.303-1.682-2.917-3.814-3.08l-.143-.01zm.043-1.227l-2.343 1.178h.417a30.1 30.1 0 0 1 1.832.046l.052.003.01-.15c.016-.326.027-.653.033-.98l.001-.096zM220 171v18h6c-3-3.003-3-9.003-6-18zm375.667-26c0 3.253-3.333 6.503-6.667 13h10v-6.497c0-3.25-3.333-3.25-3.333-6.503zm161.324-21.497c-.156 5.958-3.072 9.098-5.99 15.21-3 0-3 3.143-3 6.286h18l-3-3.143c-3-6.283-6.003-12.57-6.003-18.857v.04zM596 139l-6 6h6v-6zm76.664-9.834l.164.564c.2.708.437 1.432.684 2.176 0 3.14 3.13 6.278 6.257 9.42-2.905-5.83-5.136-9.633-7.005-12.032l-.1-.127zM789.268 116.2c-.755.758-1.328 1.7-1.807 2.735l-.067.148.063-.024c.855-.347 1.8-1.124 1.8-2.86zm-594.754-9.437l.094.01c.078.004.158.006.24.006l-.335-.015zm272.33-17.63l-.022.07c-.7 1.875-2.92 1.875-2.92 1.875s3.13 3.14 6.257 3.14c-1.36-1.365-2.13-2.73-2.82-4.097l-.495-.988zm-.94-1.746l.163.276c.235.4.45.82.657 1.23l.12.24.04-.113c.094-.312.148-.67.148-1.084l-.978-.48-.15-.07zm439.134-2.92l-.007.086a4.43 4.43 0 0 0-.006.242l.013-.327zm.004-.082l-.003.074.01-.135-.008.06zM299.65 66.013l-.116.02.343.23c3.575 2.38 7.15 4.177 10.726 5.972-5.236-5.258-8.525-6.605-10.953-6.223zm696.102 18.782c0-9.422 3.13-15.7 9.386-21.984 2.964 8.926 3.12 15.033 3.128 23.665v7.74l3.126-3.138v-6.284c3.13-9.422 6.257-15.7 12.514-21.984 3.13 6.284 3.13 12.562 3.13 18.843h6.257c0 3.14-3.13 3.14-3.13 6.284v3.14c6.26-3.14 15.646-6.284 21.903-6.284-3.13 9.422-9.386 15.703-15.643 18.843l-.001 6.28.007-.238c.154-2.825 3.042-2.978 6.004-5.8l.247-.242v6.284c3.13-6.284 9.386-6.284 15.64-9.425 0 6.28-3.13 12.562-6.254 18.843l3.126 3.14h-6.254c-3.13 3.14-9.386 6.284-12.514 9.425v3.138s3.13-3.138 6.257-3.138c8.892-2.975 14.973-3.132 23.568-3.14h1.457c-3.13 6.278-9.386 12.56-18.768 15.7-3.13 3.143-6.257 3.143-9.386 3.143 3.13 0 6.257 3.138 9.386 3.138 6.254 3.14 15.64 9.422 18.768 15.706h-3.13c3.13 3.14 6.257 3.14 6.257 6.278l-.001-.026.001-9.396c0-9.212 2.994-18.425 6.05-24.7l.21-.423c3.13 9.425 6.257 15.703 6.257 25.125v9.422c3.13 0 3.13-3.138 6.254-6.278 6.257-6.284 15.643-9.425 21.9-12.565-3.13 9.422-6.257 15.706-12.514 21.984-3.13 3.14-9.386 6.28-12.51 9.422l6.254 6.28c3.13 3.14 6.257 6.28 6.257 9.422v-9.422c0-9.422 3.13-15.703 9.386-21.98 3.13 9.42 3.13 15.7 3.13 25.122v6.28l3.13-3.14v-6.28c3.13-9.422 6.257-15.703 12.514-21.98 3.13 6.278 3.13 12.56 3.13 18.843h6.254c0 3.138-3.13 3.138-3.13 6.278v3.14c6.257-3.14 15.643-6.28 21.903-6.28-3.13 9.422-9.388 15.706-15.645 18.846l-.001 6.264.007-.228c.154-2.823 3.042-2.975 6.004-5.795l.247-.24v6.278c3.13-6.278 9.388-6.278 15.646-9.42 0 6.278-3.13 12.56-6.257 18.843l3.13 3.14h-6.257c-3.13 3.138-9.388 6.278-12.517 9.42v3.14s3.13-3.14 6.257-3.14c8.894-2.975 14.978-3.132 23.572-3.14h1.456c-3.13 6.28-9.383 12.565-18.768 15.706-2.952 2.958-5.902 3.127-8.852 3.137l-.536.001c3.13 0 6.257 3.14 9.388 3.14 6.257 3.14 15.64 9.425 18.768 15.703-6.257 3.14-12.51 0-18.768 0h-18.774c-2.96 2.975-3.117 3.132-3.125 5.8v.47c0 3.14 3.126 6.284 3.126 9.425 9.386 0 15.643 0 21.903 3.138-6.26 3.14-9.388 6.28-15.645 9.422 3.13 0 6.257 3.143 6.257 3.143-3.13 3.14-9.386 6.278-12.514 6.278l6.257 6.28c3.13-6.28 9.386-12.56 15.645-15.703 0 9.422-3.13 18.843-6.26 25.127l-3.13 3.14h9.388c9.383-3.14 18.768-3.14 25.025 0-6.257 6.278-12.514 9.42-21.897 12.56h-9.12c3.042.002 6.08.1 9.12 3.143 6.254 6.278 12.51 12.56 15.64 18.843-3.13 0-9.386-3.143-12.51-3.143-9.386 3.143-15.646 6.284-25.03 3.143l-3.13 3.14h9.386c0 3.14 0 3.14-3.13 6.278 3.13 0 6.257 3.14 9.386 3.14l9.388-9.42c3.13 9.42 0 18.843-3.13 25.122-3.13 3.14-3.13 6.28-6.26 9.425 3.13 0 6.26-3.143 9.388-3.143 9.383-3.14 18.768-3.14 25.025 0-3.13 6.284-9.386 9.425-18.77 12.562-6.254 3.14-9.383 3.14-15.643 3.14 2.952 2.96 3.12 5.922 3.13 8.886l.001 9.68c.003-2.956.087-5.91 2.86-8.865l.268-.277c6.257-6.284 12.51-12.565 18.768-15.703 0 6.278 0 15.703-6.257 21.98l-3.13 3.14v3.14h9.386l3.13-3.14c3.13-6.278 12.514-9.42 18.774-12.562 0 5.925-2.78 11.845-5.724 17.767l-.536 1.077c3.13 3.143 3.13 3.143 6.26 3.143-3.13 0-3.13 3.14-6.26 3.14v3.14c6.26 0 15.646 3.138 21.9 6.278-6.254 6.284-12.51 9.425-21.9 9.425v3.14c2.952-2.96 5.902-3.13 8.852-3.14l.536-.001c0 3.14-3.13 3.14-3.13 6.278h18.768c-.47.945-.942 1.82-1.423 2.634 37.395-8.515 73.81-16.315 109.177-22.718 112.04-20.285 224.66-28.5 315-28.5L1746 433v378H-302V695c52.928-25.23 93.095-40.564 120.5-46 35.212-6.985 69.96-13.14 104.258-18.585.488-2.196 3.02-2.57 5.673-4.97l.183-.17-.226.21c-2.77 2.47-5.542 2.62-8.313 2.63l-.536.001c-6.257 0-15.643-3.138-25.028-6.278 6.257-6.284 12.514-9.425 21.9-9.425 6.257 0 12.514 3.14 15.643 3.14v-9.42c3.13-3.14 3.13-6.28 3.13-9.425-3.13 0-3.13 3.143-6.257 6.284-6.257 6.278-15.643 9.42-21.9 9.42 3.13-9.42 6.257-15.703 12.514-21.984l3.13-3.14v-3.138h-9.386l-3.13 3.138c-6.257 6.28-12.514 9.422-21.9 9.422 3.13-6.28 6.257-12.56 12.514-15.7-3.13 0-3.13-3.143-6.257-3.143 3.13 0 3.13-3.14 6.257-3.14v-3.14c-6.257 0-12.514-6.278-25.028-9.42 8.892-2.975 14.975-3.132 23.57-3.14h1.457l3.13-3.143h-9.386c0-3.14 0-3.14 3.13-6.28-6.257 0-12.514 0-18.77-3.138 3.13-3.14 9.386-6.28 15.643-9.425v-3.14c3.13 0 3.13 3.14 6.257 3.14h18.77c-3.13-3.14-6.257-3.14-9.386-3.14-5.9-2.96-11.8-8.712-17.698-14.626l-1.073-1.077c9.386-3.14 15.643-3.14 25.028 0 3.13 0 6.257 0 9.386 3.143-3.13-3.143-6.257-6.284-6.257-9.425-2.964-8.923-3.12-15.033-3.128-23.66V486.8l3.13 3.14v-9.422c-3.13 3.14-3.13 6.28-6.257 9.422-3.13 6.278-12.514 9.42-18.77 12.562 0-6.284 3.13-15.703 9.386-21.984 0-2.895 2.654-3.124 5.518-5.596l.202-.18-.267.232c-2.682 2.25-5.363 2.39-8.045 2.4l-.536.001c-6.257 0-15.643-3.14-21.9-6.28 6.257-6.278 12.514-9.42 21.9-9.42 6.257 0 12.514 3.14 15.643 3.14v-9.425c2.944-2.956 3.118-5.91 3.128-8.865l.001-.554c-3.13 0-3.13 3.14-6.257 6.278-6.257 6.28-15.643 9.425-21.9 9.425 3.13-9.425 6.257-15.703 12.514-21.987l3.13-3.14v-3.14h-9.386l-3.13 3.14c-6.257 6.284-12.514 9.425-21.9 9.425 3.13-6.284 6.257-12.565 12.514-15.706-3.13 0-3.13-3.138-6.257-3.138 3.13 0 3.13-3.14 6.257-3.14v-3.143c-9.386 0-15.643-3.14-21.9-9.42 8.892-2.975 14.975-3.132 23.57-3.14h1.457s0-3.14 9.383-6.28h-9.383c0-3.143 0-3.143 3.13-6.284-6.257 0-12.514 0-18.77-3.14 2.944-2.953 8.66-5.91 14.54-8.865l1.104-.554v-3.143c3.13 0 3.13 3.143 6.257 3.143h18.77c-2.95-2.964-5.9-3.133-8.85-3.143l-.536-.001c-6.26-3.14-12.514-9.42-18.77-15.7 9.386-3.143 15.643-3.143 25.028 0 3.13 0 6.257 0 9.386 3.14-3.13-3.14-6.257-6.284-6.257-9.425-2.964-8.923-3.12-15.033-3.128-23.66v-1.462c6.257 3.138 9.386 6.278 12.514 12.562 6.257 3.14 12.514 6.278 15.64 12.56 3.13 0 3.13-3.14 6.26-3.14 0-3.138 3.13-6.278 3.13-9.42-6.257-3.143-12.514-9.425-15.643-15.703 3.13 0 9.386 0 15.643 3.14-3.13-3.14-3.13-3.14-3.13-6.28 3.13 0 9.386 0 12.514 3.14v-9.425c-6.257 3.143-15.643 3.143-21.9 0 3.126-6.28 9.386-9.42 18.77-12.56h6.257l-3.13-3.14h-3.13c-9.386-6.284-15.646-12.562-18.77-18.843 6.257 0 15.643 3.14 21.9 6.28 0 3.14 3.13 3.14 6.257 6.278 0-3.138-3.13-6.278-3.13-9.42-3.13-9.425-3.13-15.706 0-25.127l9.386 9.422c6.254 3.14 12.514 9.422 18.77 15.706h3.13c-3.13 0-6.257-3.14-9.386-6.284h6.257c-3.13-6.28-6.257-9.422-9.386-15.7 5.9 0 11.8 2.792 17.698 5.74l1.073.537c3.13 0 3.13-3.138 3.13-3.138 2.964 2.973 3.12 3.13 3.128 5.808v.47l9.386 9.425h3.126c-3.126 0-6.254-3.143-6.254-6.284-6.257-9.42-6.257-15.703-6.257-25.122 6.257 6.278 12.51 12.562 15.643 18.84 2.964 2.975 3.12 3.132 3.128 5.8v.47h3.13v-6.28c3.13-9.422 6.257-15.703 12.514-21.98v21.984c3.13 3.138 9.386 3.138 12.514 6.278v-9.42l-6.257-6.284c3.13-3.14 3.13-3.14 6.257-3.14v-12.56l9.386 9.42h9.386l3.13-3.138-3.13-3.14c-6.257-6.28-9.386-12.565-9.386-21.984 6.257 3.14 12.514 9.42 18.77 15.703 0 3.14 3.13 3.14 3.13 6.28h3.13c3.13-3.14 6.257-3.14 9.386-3.14l-.804-.002c-2.86-.02-5.72-.267-8.58-3.14-6.257-6.284-12.514-12.562-15.643-18.843 6.257 0 15.643 3.14 21.9 6.28v-3.14l3.13 3.14v-3.14c-6.257-3.14-9.386-6.284-12.514-9.425 3.13-3.14 6.257-3.14 9.386-3.14v-9.42c3.13 0 6.257 6.28 9.386 9.42h6.257v-3.138c-3.13-9.425-6.257-15.706-6.257-25.125 9.386 3.14 15.643 9.42 18.77 15.7 2.964 2.978 3.12 3.135 3.128 5.813v.47l3.13-3.14v-9.425c3.13-6.278 6.254-12.562 12.514-15.703 3.13 9.425 3.13 15.703 0 25.127v3.14c3.13 0 6.257 3.14 6.257 6.278h3.13v-6.278c3.13 0 3.13 3.14 6.257 3.14 3.13-6.28 6.257-12.565 12.514-15.706 1.564 3.14 2.346 7.067 2.346 10.993l-.003.394 16.428-8.247v-6.28l3.13 3.14h9.117c-3.04-.002-6.078-.1-9.117-3.14-6.257-6.278-12.51-12.562-15.643-18.84 9.386 0 18.77 3.138 25.028 6.278 0 3.14 3.13 3.14 6.257 6.284 0-3.143-3.13-6.284-3.13-9.425v-9.42l-3.13 3.14v-9.425c-6.257 3.143-12.514 6.284-21.9 6.284s-18.77-3.14-25.028-6.284c6.257-3.14 12.514-6.28 21.9-6.28h9.386c0-3.138-3.13-3.138-6.257-6.278l-3.13-3.14-9.386-18.843 18.77 9.42c3.13-3.138 6.257-6.278 9.386-6.278v-6.284c-6.257-3.14-12.514-6.28-15.643-9.422-6.257-3.138-12.514-6.278-15.643-9.422 9.386-3.14 15.643-3.14 25.028-3.14 3.13 0 6.257 3.14 9.386 3.14l-.335-.015-.134-.01c-2.594-.296-2.814-3.117-5.548-6.008l-.24-.248c-6.257-6.278-9.386-12.56-9.386-21.984 6.257 3.14 12.514 9.425 18.77 15.706 3.13 3.14 3.13 6.278 6.257 6.278V97.36c-3.13-3.14-6.257-6.28-6.257-12.565l-3.13-3.14h-3.13c-9.386-3.14-15.643-6.28-21.9-12.56 9.386-3.143 15.643-3.143 25.028 0h3.13v-3.143c-3.13-9.42-6.257-15.7-6.257-25.125 9.386 3.14 15.643 9.425 18.77 15.706 0 3.138 3.13 6.278 3.13 9.42v-.015-15.685c3.06-6.144 6.118-12.286 12.102-15.49l.413-.214c3.13 9.42 3.13 15.703 0 25.122v3.14c3.13 0 6.257 3.14 6.257 6.284h3.13V62.81s3.13 0 9.386-6.278c3.13-6.28 6.257-12.565 12.514-15.706 3.13 9.425 3.13 15.706 0 25.125-2.964 2.978-3.12 3.135-3.128 5.813v3.61c3.13 3.138 3.13 3.138 3.13 6.278h3.13v-3.14c3.13-6.278 9.386-15.703 15.643-18.843 0 9.425 0 15.703-3.13 25.125l3.13 3.143c2.95-2.964 5.9-3.133 8.85-3.143l.536-.001c-3.13-3.14-6.257-6.28-6.257-12.56-3.13-9.425-3.13-18.843 0-25.127 6.257 6.284 9.386 12.562 12.514 21.987l.002 8.588c.02-2.77.258-5.54 2.858-8.3l.268-.277c1.35-1.357 2.7-2.713 4.554-3.06l.02-.004-.193-.13c-2.324-1.587-4.647-3.434-6.97-5.7l-.536-.53c9.383-3.138 15.64-3.138 25.025 0 3.13 0 6.257 3.14 9.386 3.14-3.13-3.14-3.13-6.278-6.257-9.42-3.13-9.425-6.257-15.706-6.257-25.127 9.386 3.143 15.643 9.422 18.774 15.703 0 3.14 3.126 6.284 3.126 9.425v-.005-9.42c3.06-9.21 6.118-15.422 12.102-21.565l.413-.42c3.13 9.425 3.13 15.703 0 25.125 0 3.143-3.13 9.425-6.257 12.562 3.13 0 6.257 3.14 9.386 3.14 3.13 3.14 6.257 3.14 9.386 6.284l-.002-.002-.274-.275c-2.942-2.958-5.802-5.914-5.973-8.87l-.008-.277c-3.13-9.42-3.13-15.703-3.13-25.122 6.257 3.138 12.514 9.42 15.643 18.843v3.14h3.13c3.13-3.14 3.13-3.14 3.13-6.28v-3.143c-3.13-3.14-3.13-3.14-3.13-6.28-3.13-9.42-3.13-18.843 0-25.122 6.257 3.14 9.386 9.42 12.514 15.703 3.13 0 3.13-3.143 6.257-3.143v6.284h3.13c3.13-6.284 9.386-12.565 15.643-15.703 0 9.42-3.13 18.84-6.257 25.122l3.13 3.14c0-3.14 3.13-6.28 3.13-9.422v.016l.01.298c.194 2.73 2.915 2.924 3.1 5.653l.01.314c3.126-6.28 6.254-12.56 9.383-15.703 3.13 6.284 3.13 12.562 3.13 18.843h3.13l-3.13 3.143c-3.13 6.28-3.13 9.42-6.257 12.56v3.14s3.13-3.14 12.514 9.422c3.13-9.422 12.514-12.562 18.77-15.703 0 6.28-3.13 15.703-9.386 21.984l-6.24 6.266.25-.244c2.86-2.712 5.72-2.872 8.58-2.88l.536-.001c8.75-2.928 17.5-.397 23.713 2.506l.187.088-.08-.134c-.418-.683-.906-1.366-1.53-2.05l-.39-.4c-3.13-9.422-6.257-15.7-6.257-25.125 9.386 3.14 15.643 9.425 18.77 15.703 0 3.14 3.13 6.28 3.13 9.422v-9.422c3.13-9.422 6.257-15.703 12.514-21.98 3.13 9.42 3.13 15.703 0 25.122 0 3.14-3.126 9.425-6.257 12.565 3.13 0 6.257 3.14 9.386 3.14 3.13 3.138 6.257 3.138 9.386 6.278l-.007-.007-.27-.27c-2.942-2.956-5.802-5.91-5.973-8.865l-.008-.277c-3.13-9.425-3.13-15.706-3.13-25.127 6.257 3.143 12.514 9.422 15.643 18.843v3.143h3.13c3.13-3.143 3.13-3.143 3.13-6.284v-3.14c-3.13-3.14-3.13-3.14-3.13-6.278-3.13-9.425-3.13-18.843 0-25.127 6.257 3.143 9.383 9.425 12.514 15.703 3.13 0 3.13-3.14 6.257-3.14v6.28h3.13c3.13-6.28 9.386-12.56 15.643-15.7 0 9.42-3.13 18.843-6.257 25.122l3.13 3.14c0-3.14 3.13-6.278 3.13-9.42v.004l.012.3c.194 2.73 2.913 2.924 3.107 5.65l.01.314c3.13-6.278 6.257-12.562 9.386-15.703 3.13 6.28 3.13 12.565 3.13 18.843h3.126l-3.126 3.14c-3.13 3.14-3.13 9.425-6.26 12.565l-.001 3.106.003-.1c.088-2.96 3.126-2.917 9.116 3.003l.27.27c3.126-9.42 12.51-12.56 18.768-15.703 0 6.284-3.13 15.703-9.386 21.984l-6.25 6.275.26-.252c2.95-2.794 5.9-2.876 8.85-2.88h.268c9.386-3.143 18.77 0 25.028 3.14-6.257 6.278-9.386 6.278-15.643 9.42-3.13 3.14-9.386 6.284-15.643 9.425v6.278c0 3.14 3.13 3.14 6.257 6.28 3.13-3.14 6.257-6.28 9.386-6.28l3.13-3.138h3.13c0-3.14 3.13-9.425 3.13-12.565 6.257 6.284 9.386 12.565 12.514 21.984v8.868c.01-2.86.173-5.725 2.86-8.59l.268-.277 9.386-9.42c-6.257-3.14-12.514-6.28-18.77-12.565 9.386-3.14 15.643-3.14 25.028 0 3.13 0 6.257 3.14 9.386 3.14-3.13-3.14-3.13-6.28-6.257-9.422-3.13-9.422-6.257-15.703-6.257-25.122 9.386 3.14 15.646 9.42 18.77 15.7 0 3.143 3.13 6.284 3.13 9.422v-9.422c3.13-9.42 6.257-15.7 12.514-21.984 3.13 9.425 3.13 15.703 0 25.127 0 3.14-3.13 9.42-6.257 12.56 3.13 0 6.257 3.14 9.386 3.14 1.64 0 3.277.862 5.366 3.49l.043.054-.04-.138c-2.175-7.67-2.24-13.47-2.24-21.51v-.737c6.257 3.143 12.514 9.422 15.643 18.843v3.143h3.13c3.13-3.143 3.13-3.143 3.13-6.284v-3.14c-3.13-3.14-3.13-3.14-3.13-6.278-3.13-9.425-3.13-18.843 0-25.125 6.257 3.14 9.386 9.42 12.514 15.7 3.13 0 3.13-3.14 6.257-3.14v6.28h3.13c3.13-6.28 9.386-12.56 15.643-15.7 0 9.42-3.126 18.843-6.257 25.122l3.13 3.14c0-3.14 3.126-6.278 3.126-9.42v.015l.01.3c.194 2.73 2.913 2.924 3.107 5.65l.01.314c3.13-6.278 6.257-12.562 9.386-15.703 2.944 5.912 3.118 11.826 3.128 17.735v1.108h3.13l-3.13 3.14c-3.13 3.14-3.13 9.425-6.257 12.565v2.667c.008-2.602.156-2.822 2.888-5.566l.24-.242c6.257-6.284 12.514-9.425 18.768-12.565 6.26 3.14 9.388 6.28 12.517 9.425v-6.284c6.257 3.14 9.386 6.284 12.514 9.425 3.13 0 3.13-3.14 3.13-3.14h-3.13c2.265-2.276 2.9-6.198 4.25-9.38l.133-.3-.058.023c-.602.22-1.127.234-1.2.234-9.392 0-18.778-3.14-25.035-6.278-9.386-6.284-15.643-12.565-18.77-18.843 6.257-3.14 15.64 0 21.9 3.14 3.13 3.138 6.257 3.138 9.386 6.278 0-3.14-3.13-6.278-3.13-9.42v-3.14c-3.13-9.425-3.13-15.706 0-21.984 6.257 3.14 9.386 9.42 12.514 15.7h9.386l3.13-3.14c-3.13-3.14-6.257-9.42-9.386-15.703s-6.257-9.42-9.386-15.7c6.257 0 15.643 3.14 21.9 9.42l5.99 6.004c-2.77-2.956-2.855-5.912-2.858-8.865v-1.533c.006-9 .14-17.87 3.125-23.868 3.13 6.278 9.386 12.56 9.386 21.984l-.001 6.237.012-.597c.194-5.65 2.913-8.77 3.107-14.425l.01-.64v-3.14l-3.13-3.14c-6.257-6.278-9.386-12.562-12.51-21.98 9.383 3.14 15.64 6.278 21.897 12.56l3.13 3.143s3.13 0 9.386-6.284c0-9.42 3.13-18.843 6.257-25.125 3.13 9.425 6.257 15.706 6.257 25.125v9.425c3.13 0 3.13-3.14 6.257-6.284v-3.14c6.257-6.278 12.514-9.42 18.77-9.42-3.13 9.42-6.257 15.703-12.514 21.98h-3.13v9.422h3.13c0-3.14 3.13-3.14 3.13-6.28 2.964 2.975 3.12 3.132 3.128 5.8v.47c6.257-6.28 12.514-9.422 18.77-9.422-3.13 9.422-6.257 15.706-12.514 21.984l-3.13 3.14v9.425h3.13l3.13-3.14c6.257-6.284 12.514-9.425 21.9-9.425 0 6.28-6.257 12.565-12.514 18.843v6.28c3.13 0 6.257 3.143 9.386 3.143-3.13-6.284 0-9.425 0-15.703 3.13-9.425 6.257-15.703 12.514-21.984 3.126 9.42 3.126 15.7 0 25.125 0 2.865-2.608 5.732-3.062 8.6l-.042.345.032-.214c.425-2.4 3.156-2.685 5.953-5.35l.247-.242c3.126 0 9.386-3.138 12.514-3.138l-9.388-18.843c6.26 3.138 15.646 6.278 46.934 3.138 3.13 0 3.13 3.14 6.257 6.28V56.53c0-9.422 3.13-18.843 6.257-25.125v.001l.247.736c2.962 8.773 5.847 14.876 6 23.65l.006.737v9.422c3.13 0 3.13-3.14 6.257-6.28 6.257-6.28 15.645-9.42 21.903-12.562-3.13 9.422-6.257 15.703-12.514 21.987-3.13 3.138-9.388 6.278-12.517 9.42l6.257 6.28c3.13 3.143 6.26 6.284 6.26 9.422l-.001-.023z" fill="#031c26" fill-rule="evenodd"/></svg>
