<?xml version="1.0" encoding="UTF-8"?>
<svg width="26px" height="26px" viewBox="0 0 26 26" version="1.1" xmlns="http://www.w3.org/2000/svg" xmlns:xlink="http://www.w3.org/1999/xlink">
    <!-- Generator: Sketch 57.1 (83088) - https://sketch.com -->
    <title>Glyph / Social / Facebook / Black</title>
    <desc>Created with Sketch.</desc>
    <g id="Landing-Page" stroke="none" stroke-width="1" fill="none" fill-rule="evenodd">
        <g id="Landing-page-design" transform="translate(-1092.000000, -7748.000000)" fill="#FFFFFF">
            <g id="Group-31" transform="translate(0.000000, 7200.000000)">
                <g id="Group-8" transform="translate(0.000000, 433.000000)">
                    <g id="Group-25" transform="translate(897.000000, 112.000000)">
                        <g id="Glyph-/-Social-/-Facebook-/-White" transform="translate(192.000000, 0.000000)">
                            <g id="Page-1" transform="translate(3.200000, 3.200000)">
                                <path d="M24.1871245,0 L1.41287552,0 C0.632484807,0 0,0.632482437 0,1.41287023 L0,24.1870339 C0,24.9673257 0.632484807,25.6 1.41287552,25.6 L13.6738151,25.6 L13.6738151,15.6863126 L10.3375872,15.6863126 L10.3375872,11.8227408 L13.6738151,11.8227408 L13.6738151,8.97350044 C13.6738151,5.66701961 15.6932775,3.86654527 18.6429549,3.86654527 C20.0559263,3.86654527 21.2702511,3.97167126 21.6240935,4.01867101 L21.6240935,7.47420821 L19.5783495,7.47516739 C17.974213,7.47516739 17.6635338,8.2374267 17.6635338,9.35602091 L17.6635338,11.8227408 L21.4894243,11.8227408 L20.9913209,15.6863126 L17.6635338,15.6863126 L17.6635338,25.6 L24.1871245,25.6 C24.9674193,25.6 25.6,24.9673257 25.6,24.1870339 L25.6,1.41287023 C25.6,0.632482437 24.9674193,0 24.1871245,0" id="Fill-1"></path>
                            </g>
                        </g>
                    </g>
                </g>
            </g>
        </g>
    </g>
</svg>