<?xml version="1.0" encoding="UTF-8"?>
<svg width="26px" height="26px" viewBox="0 0 26 26" version="1.1" xmlns="http://www.w3.org/2000/svg" xmlns:xlink="http://www.w3.org/1999/xlink">
    <!-- Generator: Sketch 57.1 (83088) - https://sketch.com -->
    <title>Glyph / Social / Instagram / Black</title>
    <desc>Created with Sketch.</desc>
    <g id="Landing-Page" stroke="none" stroke-width="1" fill="none" fill-rule="evenodd">
        <g id="Landing-page-design" transform="translate(-964.000000, -7748.000000)" fill="#FFFFFF">
            <g id="Group-31" transform="translate(0.000000, 7200.000000)">
                <g id="Group-8" transform="translate(0.000000, 433.000000)">
                    <g id="Group-25" transform="translate(897.000000, 112.000000)">
                        <g id="Glyph-/-Social-/-Instagram-/-White" transform="translate(64.000000, 0.000000)">
                            <g id="Social-Glyph/Instagram" transform="translate(3.200000, 3.200000)">
                                <path d="M23.3081854,12.7986692 C23.2950806,12.7985168 23.2819251,12.7983644 23.2688203,12.7982629 C23.2688203,11.7322565 23.2896457,10.6657422 23.2627759,9.60039619 C23.2374298,8.59544381 23.1995378,7.58785016 23.0977981,6.58848508 C23.000579,5.63249778 22.6640711,4.75138032 22.0190933,4.00816762 C21.1167441,2.96826921 19.9251759,2.52966603 18.6059124,2.44905651 C17.1045029,2.35727238 15.598014,2.33472 14.0932521,2.31638349 C12.5958552,2.29814857 11.0975949,2.3042946 9.60035048,2.33421206 C8.59544889,2.35437714 7.58785524,2.39719619 6.58849016,2.49888508 C5.63250286,2.59615492 4.7513854,2.93266286 4.0081219,3.57769143 C2.96827429,4.47998984 2.52967111,5.6715073 2.44901079,6.99082159 C2.35717587,8.49223111 2.33472508,9.99877079 2.31638857,11.5034819 C2.29810286,13.0008279 2.3041981,14.4991898 2.33421714,15.9963835 C2.35438222,17.0012851 2.39715048,18.0088787 2.49883937,19.0082438 C2.59616,19.9642311 2.93266794,20.8453486 3.57769651,21.5886121 C4.47999492,22.6284597 5.67151238,23.0670121 6.99082667,23.1476724 C8.49228698,23.2395073 9.99877587,23.2620089 11.503487,23.2803454 C13.0008838,23.2986311 14.4994489,23.299139 15.9963378,23.2606375 C17.1017092,23.2322438 18.2180521,23.2110629 19.3066108,23.0403962 C21.1668267,22.7487898 22.4270679,21.6713549 22.9272838,19.8245994 C23.0914489,19.2183263 23.1753092,18.5772089 23.1988267,17.9484343 C23.2629283,16.2328279 23.2753219,14.5153422 23.3081854,12.7986692 M-5.07936504e-06,17.0136787 L-5.07936504e-06,8.58305016 C0.0140647619,8.50315175 0.0384457143,8.4235073 0.0408330159,8.34325333 C0.0702933333,7.35409778 0.114788571,6.36651683 0.357226667,5.40047238 C0.904223492,3.22101841 2.1681219,1.63529143 4.24680127,0.73639619 C5.37391238,0.249031111 6.57167746,0.107418413 7.78544254,0.0577422222 C8.05170286,0.046872381 8.31715048,0.0196977778 8.58305524,-1.01587301e-05 L17.0136838,-1.01587301e-05 C17.0935822,0.0141612698 17.1729219,0.0344279365 17.2534806,0.0414374603 C18.069379,0.112446984 18.8983314,0.112904127 19.6992457,0.262948571 C22.6239949,0.810808889 24.5005663,2.52250413 25.2437283,5.4283073 C25.5653537,6.68550095 25.5684013,7.97637079 25.5800838,9.25860571 C25.6028902,11.7707581 25.5974552,14.2835708 25.5614425,16.7955708 C25.5474743,17.7728914 25.5052648,18.7645867 25.326979,19.722047 C24.7846044,22.6361295 23.0651886,24.5030502 20.1702552,25.2436216 C18.9211886,25.5631137 17.6389029,25.5707835 16.3653029,25.5794692 C13.7010743,25.5976025 11.0364394,25.5710883 8.37210921,25.5516851 C7.36527746,25.5443708 6.36032508,25.4840279 5.37833143,25.2347835 C3.23996952,24.6919517 1.67064889,23.4538057 0.766725079,21.4208914 C0.256706032,20.2737168 0.10823619,19.0514692 0.0577473016,17.8114438 C0.0468774603,17.5451835 0.0197028571,17.2795835 -5.07936504e-06,17.0136787" id="Fill-1"></path>
                                <path d="M12.8197892,8.54077945 C10.4694654,8.54001778 8.54240508,10.4391416 8.54072778,12.7577702 C8.5390527,15.1275479 10.4327416,17.0547098 12.7641702,17.0559803 C15.1310527,17.0572495 17.0550146,15.1610717 17.0559801,12.8261384 C17.0569448,10.4616432 15.1588368,8.54149079 12.8197892,8.54077945 M19.3755739,12.7926654 C19.3770463,16.4356368 16.434621,19.3774019 12.791294,19.3756249 C9.16269714,19.3737956 6.22093206,16.4313702 6.22113524,12.8040432 C6.22128762,9.15949714 9.16320508,6.21818921 12.805313,6.22113303 C16.4352305,6.22403048 19.3742019,9.16356063 19.3755739,12.7926654" id="Fill-4"></path>
                                <path d="M21.1698922,5.97426286 C21.1682641,6.82764698 20.4707657,7.51854222 19.615807,7.51374195 C18.7774578,7.50904381 18.0873752,6.81703111 18.0824212,5.97614222 C18.0774197,5.12484063 18.7732927,4.42688508 19.627134,4.42678349 C20.4848356,4.4266819 21.1714641,5.11559619 21.1698922,5.97426286" id="Fill-6"></path>
                            </g>
                        </g>
                    </g>
                </g>
            </g>
        </g>
    </g>
</svg>