<?xml version="1.0" encoding="UTF-8"?>
<svg width="28px" height="28px" viewBox="0 0 28 28" version="1.1" xmlns="http://www.w3.org/2000/svg" xmlns:xlink="http://www.w3.org/1999/xlink">
    <!-- Generator: Sketch 57.1 (83088) - https://sketch.com -->
    <title>Glyph / Social / Link out</title>
    <desc>Created with Sketch.</desc>
    <g id="Landing-Page" stroke="none" stroke-width="1" fill="none" fill-rule="evenodd">
        <g id="Landing-page-design" transform="translate(-899.000000, -7747.000000)">
            <g id="Group-31" transform="translate(0.000000, 7200.000000)">
                <g id="Group-8" transform="translate(0.000000, 433.000000)">
                    <g id="Group-25" transform="translate(897.000000, 112.000000)">
                        <g id="Glyph-/-Social-/-Link-out">
                            <rect id="Rectangle-3" x="0" y="0" width="32" height="32"></rect>
                            <g id="Group-2" transform="translate(15.839192, 15.839192) rotate(45.000000) translate(-15.839192, -15.839192) translate(9.439192, -0.160808)" fill="#FFFFFF" fill-rule="nonzero">
                                <path d="M4.8,3.2 C3.9163444,3.2 3.2,3.9163444 3.2,4.8 L3.2,12.8 C3.2,13.6836556 3.9163444,14.4 4.8,14.4 L8,14.4 C8.8836556,14.4 9.6,13.6836556 9.6,12.8 L9.6,4.8 C9.6,3.9163444 8.8836556,3.2 8,3.2 L4.8,3.2 Z M4.8,2.274e-13 L8,2.274e-13 C10.6509668,2.274e-13 12.8,2.1490332 12.8,4.8 L12.8,12.8 C12.8,15.4509668 10.6509668,17.6 8,17.6 L4.8,17.6 C2.1490332,17.6 -2.274e-13,15.4509668 -2.274e-13,12.8 L-2.274e-13,4.8 C-2.274e-13,2.1490332 2.1490332,2.274e-13 4.8,2.274e-13 Z" id="Rectangle-2"></path>
                                <path d="M4.8,17.6 C3.9163444,17.6 3.2,18.3163444 3.2,19.2 L3.2,27.2 C3.2,28.0836556 3.9163444,28.8 4.8,28.8 L8,28.8 C8.8836556,28.8 9.6,28.0836556 9.6,27.2 L9.6,19.2 C9.6,18.3163444 8.8836556,17.6 8,17.6 L4.8,17.6 Z M4.8,14.4 L8,14.4 C10.6509668,14.4 12.8,16.5490332 12.8,19.2 L12.8,27.2 C12.8,29.8509668 10.6509668,32 8,32 L4.8,32 C2.1490332,32 0,29.8509668 0,27.2 L0,19.2 C0,16.5490332 2.1490332,14.4 4.8,14.4 Z" id="Rectangle-2-Copy-2"></path>
                                <path d="M4.8,11.2 C4.8,10.3163444 5.5163444,9.6 6.4,9.6 C7.2836556,9.6 8,10.3163444 8,11.2 L8,20.8 C8,21.6836556 7.2836556,22.4 6.4,22.4 C5.5163444,22.4 4.8,21.6836556 4.8,20.8 L4.8,11.2 Z" id="Line-2"></path>
                            </g>
                        </g>
                    </g>
                </g>
            </g>
        </g>
    </g>
</svg>