<?xml version="1.0" encoding="UTF-8"?>
<svg width="26px" height="23px" viewBox="0 0 26 23" version="1.1" xmlns="http://www.w3.org/2000/svg" xmlns:xlink="http://www.w3.org/1999/xlink">
    <!-- Generator: Sketch 57.1 (83088) - https://sketch.com -->
    <title>Glyph / Social / Twitter / Black</title>
    <desc>Created with Sketch.</desc>
    <g id="Landing-Page" stroke="none" stroke-width="1" fill="none" fill-rule="evenodd">
        <g id="Landing-page-design" transform="translate(-1028.000000, -7749.000000)" fill="#FFFFFF">
            <g id="Group-31" transform="translate(0.000000, 7200.000000)">
                <g id="Group-8" transform="translate(0.000000, 433.000000)">
                    <g id="Group-25" transform="translate(897.000000, 112.000000)">
                        <g id="Glyph-/-Social-/-Twitter-/-White" transform="translate(128.000000, 0.000000)">
                            <g id="Group-24" transform="translate(3.200000, 4.800000)">
                                <path d="M22.5842578,3.46908235 C23.6691436,2.78445761 24.5015907,1.69888364 24.8922698,0.405703555 C23.8765041,1.04120014 22.7540529,1.5007862 21.5564712,1.74959658 C20.60081,0.671946514 19.2349357,0 17.7233081,0 C14.823267,0 12.4731819,2.48017994 12.4731819,5.5388044 C12.4731819,5.97303399 12.5167576,6.39617012 12.6069144,6.80028889 C8.24332922,6.56891108 4.37410342,4.36606756 1.78209779,1.01267411 C1.32981159,1.8335899 1.07136233,2.78445761 1.07136233,3.79871649 C1.07136233,5.71946926 1.99847391,7.41518334 3.40792393,8.41042488 C2.54692728,8.38189885 1.73701943,8.1299189 1.02778658,7.71787623 L1.02778658,7.78602175 C1.02778658,10.4706382 2.83693138,12.7099317 5.24261314,13.2170611 C4.80084522,13.3470131 4.33804073,13.411989 3.85720491,13.411989 C3.51911722,13.411989 3.18854258,13.3787087 2.86998885,13.3137327 C3.53714856,15.5134067 5.4770206,17.1172035 7.7760169,17.1599926 C5.97739039,18.6465158 3.71295416,19.5308227 1.25317838,19.5308227 C0.829441803,19.5308227 0.410213066,19.507051 0,19.4547533 C2.32454071,21.0252698 5.08483888,21.9428571 8.05099489,21.9428571 C17.7127898,21.9428571 22.9929682,13.5023215 22.9929682,6.18222488 C22.9929682,5.9413384 22.989963,5.70203669 22.9794447,5.46590454 C24.0057287,4.68460824 24.8982802,3.70838406 25.6,2.59745362 C24.6578623,3.03802233 23.6451018,3.33596088 22.5842578,3.46908235 Z" id="Shape"></path>
                            </g>
                        </g>
                    </g>
                </g>
            </g>
        </g>
    </g>
</svg>