<?xml version="1.0" encoding="UTF-8"?>
<svg width="26px" height="19px" viewBox="0 0 26 19" version="1.1" xmlns="http://www.w3.org/2000/svg" xmlns:xlink="http://www.w3.org/1999/xlink">
    <!-- Generator: Sketch 55.2 (78181) - https://sketchapp.com -->
    <title>Fill 1</title>
    <desc>Created with Sketch.</desc>
    <g id="Article-Page" stroke="none" stroke-width="1" fill="none" fill-rule="evenodd">
        <g id="rewilding-desktop" transform="translate(-1156.000000, -12442.000000)" fill="#FFFFFF">
            <g id="Footer" transform="translate(0.000000, 11931.000000)">
                <g id="Group-8" transform="translate(0.000000, 393.000000)">
                    <g id="Group-25" transform="translate(897.000000, 112.000000)">
                        <g id="Social-Glyph/Youtube" transform="translate(259.200000, 6.400000)">
                            <path d="M10.1792151,12.7997992 C12.4182111,11.5274792 14.6351711,10.267658 16.8793123,8.99242667 C14.6304276,7.7145098 12.4128653,6.45438745 10.1792151,5.18512941 L10.1792151,12.7997992 Z M10.760586,17.9844267 C9.71698447,17.9522761 8.52610761,17.927178 7.33636016,17.8752753 C6.35552878,17.8324831 5.37529976,17.7683576 4.39627545,17.693691 C3.79269271,17.6476361 3.18446682,17.5957584 2.60796486,17.3930918 C1.50688878,17.0059796 0.808385255,16.2344408 0.519029961,15.1076894 C0.269555451,14.1362447 0.182364863,13.1390996 0.120498196,12.1416282 C0.0687711373,11.307771 0.0354409412,10.4724329 0.0114723137,9.63722039 C-0.0299143529,8.19433412 0.0453797647,6.75463529 0.161031529,5.31676863 C0.227114667,4.4953349 0.30720251,3.67397647 0.519657412,2.87590902 C0.856849569,1.60943686 1.67000094,0.803463529 2.94686369,0.49817098 C3.77053114,0.301276863 4.6171382,0.254167843 5.45985506,0.204498824 C6.40246212,0.148956863 7.34592251,0.102425098 8.28970918,0.0747921569 C9.53462212,0.0383498039 10.7801374,0.0135529412 12.0255774,0.00346352941 C13.1499696,-0.0056972549 14.2747131,0.00464313725 15.3990802,0.0197270588 C16.2346943,0.0309207843 17.0703335,0.0549898039 17.9053704,0.08832 C19.2040182,0.140147451 20.5028668,0.195890196 21.794186,0.354836078 C22.367626,0.425436863 22.9389578,0.510042353 23.4556762,0.795758431 C24.3391523,1.28426667 24.87743,2.0287749 25.0959837,3.01040941 C25.3037704,3.94360471 25.4013766,4.89158275 25.4590017,5.8432251 C25.509499,6.67720784 25.5438833,7.51247059 25.5678268,8.34765804 C25.6092135,9.79056941 25.5339194,11.2302682 25.4182676,12.6681098 C25.3521845,13.4895435 25.2720966,14.3109271 25.0596166,15.1089945 C24.7223743,16.3754416 23.9091978,17.1813396 22.63231,17.486582 C21.8086174,17.6835263 20.9620605,17.7305851 20.1193437,17.780229 C19.1767617,17.8357961 18.2332762,17.8823278 17.2895147,17.9099357 C16.0445766,17.9464031 14.7990362,17.9668831 13.5536213,17.9823184 C12.6717766,17.9932612 11.789706,17.9844267 10.760586,17.9844267 L10.760586,17.9844267 Z" id="Fill-1"></path>
                        </g>
                    </g>
                </g>
            </g>
        </g>
    </g>
</svg>