<?xml version="1.0" encoding="UTF-8"?>
<svg width="1260px" height="710px" viewBox="0 0 1260 710" version="1.1" xmlns="http://www.w3.org/2000/svg" xmlns:xlink="http://www.w3.org/1999/xlink">
    <!-- Generator: Sketch 55.2 (78181) - https://sketchapp.com -->
    <title>Hydropower-map-medium</title>
    <desc>Created with Sketch.</desc>
    <defs>
        <rect id="path-1" x="0" y="0" width="1261" height="710"></rect>
    </defs>
    <g id="Hydropower-map-medium" stroke="none" stroke-width="1" fill="none" fill-rule="evenodd">
        <g id="map">
            <mask id="mask-2" fill="white">
                <use xlink:href="#path-1"></use>
            </mask>
            <g id="Mask"></g>
            <g id="Dams" mask="url(#mask-2)">
                <g transform="translate(31.000000, 26.000000)" id="Other-Dams">
                    <g>
                        <path d="M16.0270142,133.433204 C16.0270142,137.866115 12.4394858,141.459262 8.01350711,141.459262 C3.58381846,141.459262 0,137.866115 0,133.433204 C0,129.000294 3.58381846,125.407147 8.01350711,125.407147 C12.4394858,125.407147 16.0270142,129.000294 16.0270142,133.433204" id="Fill-6" stroke="#963B3B" fill="#EC8484"></path>
                        <path d="M76.1283175,105.342004 C76.1283175,109.774914 72.5407891,113.368061 68.1148104,113.368061 C63.6851218,113.368061 60.1013033,109.774914 60.1013033,105.342004 C60.1013033,100.909093 63.6851218,97.3159461 68.1148104,97.3159461 C72.5407891,97.3159461 76.1283175,100.909093 76.1283175,105.342004" id="Fill-8" stroke="#963B3B" fill="#EC8484"></path>
                        <path d="M83.1401362,103.335489 C83.1401362,107.7684 79.5526078,111.361547 75.1266291,111.361547 C70.6969405,111.361547 67.113122,107.7684 67.113122,103.335489 C67.113122,98.9025787 70.6969405,95.3094317 75.1266291,95.3094317 C79.5526078,95.3094317 83.1401362,98.9025787 83.1401362,103.335489" id="Fill-10" stroke="#963B3B" fill="#EC8484"></path>
                        <path d="M88.1485782,93.3029174 C88.1485782,97.7358278 84.5610498,101.328975 80.1350711,101.328975 C75.7053824,101.328975 72.121564,97.7358278 72.121564,93.3029174 C72.121564,88.870007 75.7053824,85.27686 80.1350711,85.27686 C84.5610498,85.27686 88.1485782,88.870007 88.1485782,93.3029174" id="Fill-12" stroke="#963B3B" fill="#EC8484"></path>
                        <path d="M94.1587085,88.2866315 C94.1587085,92.7195419 90.5711801,96.3126889 86.1452014,96.3126889 C81.7155127,96.3126889 78.1316943,92.7195419 78.1316943,88.2866315 C78.1316943,83.8537211 81.7155127,80.2605741 86.1452014,80.2605741 C90.5711801,80.2605741 94.1587085,83.8537211 94.1587085,88.2866315" id="Fill-14" stroke="#963B3B" fill="#EC8484"></path>
                        <path d="M102.172216,86.2801172 C102.172216,90.7130276 98.5846872,94.3061746 94.1587085,94.3061746 C89.7290199,94.3061746 86.1452014,90.7130276 86.1452014,86.2801172 C86.1452014,81.8472067 89.7290199,78.2540597 94.1587085,78.2540597 C98.5846872,78.2540597 102.172216,81.8472067 102.172216,86.2801172" id="Fill-16" stroke="#963B3B" fill="#EC8484"></path>
                        <path d="M108.182346,86.2801172 C108.182346,90.7130276 104.594818,94.3061746 100.168839,94.3061746 C95.7391502,94.3061746 92.1553317,90.7130276 92.1553317,86.2801172 C92.1553317,81.8472067 95.7391502,78.2540597 100.168839,78.2540597 C104.594818,78.2540597 108.182346,81.8472067 108.182346,86.2801172" id="Fill-18" stroke="#963B3B" fill="#EC8484"></path>
                        <path d="M115.194165,84.2736028 C115.194165,88.7065132 111.606636,92.2996602 107.180658,92.2996602 C102.750969,92.2996602 99.1671504,88.7065132 99.1671504,84.2736028 C99.1671504,79.8406924 102.750969,76.2475454 107.180658,76.2475454 C111.606636,76.2475454 115.194165,79.8406924 115.194165,84.2736028" id="Fill-20" stroke="#963B3B" fill="#EC8484"></path>
                        <path d="M120.202607,82.2670884 C120.202607,86.6999989 116.615078,90.2931459 112.189099,90.2931459 C107.759411,90.2931459 104.175592,86.6999989 104.175592,82.2670884 C104.175592,77.834178 107.759411,74.241031 112.189099,74.241031 C116.615078,74.241031 120.202607,77.834178 120.202607,82.2670884" id="Fill-22" stroke="#963B3B" fill="#EC8484"></path>
                        <path d="M124.20936,77.2508026 C124.20936,81.683713 120.621832,85.27686 116.195853,85.27686 C111.766164,85.27686 108.182346,81.683713 108.182346,77.2508026 C108.182346,72.8178922 111.766164,69.2247452 116.195853,69.2247452 C120.621832,69.2247452 124.20936,72.8178922 124.20936,77.2508026" id="Fill-24" stroke="#963B3B" fill="#EC8484"></path>
                        <path d="M134.226244,66.2149736 C134.226244,70.647884 130.638716,74.241031 126.212737,74.241031 C121.783048,74.241031 118.19923,70.647884 118.19923,66.2149736 C118.19923,61.7820632 121.783048,58.1889162 126.212737,58.1889162 C130.638716,58.1889162 134.226244,61.7820632 134.226244,66.2149736" id="Fill-26" stroke="#963B3B" fill="#EC8484"></path>
                        <path d="M148.249881,52.1693732 C148.249881,56.6022836 144.662353,60.1954306 140.236374,60.1954306 C135.806686,60.1954306 132.222867,56.6022836 132.222867,52.1693732 C132.222867,47.7364628 135.806686,44.1433158 140.236374,44.1433158 C144.662353,44.1433158 148.249881,47.7364628 148.249881,52.1693732" id="Fill-28" stroke="#963B3B" fill="#EC8484"></path>
                        <path d="M158.266765,48.1563445 C158.266765,52.5892549 154.679237,56.1824019 150.253258,56.1824019 C145.82357,56.1824019 142.239751,52.5892549 142.239751,48.1563445 C142.239751,43.723434 145.82357,40.130287 150.253258,40.130287 C154.679237,40.130287 158.266765,43.723434 158.266765,48.1563445" id="Fill-30" stroke="#963B3B" fill="#EC8484"></path>
                        <path d="M172.290403,45.1465729 C172.290403,49.5794833 168.702874,53.1726303 164.276896,53.1726303 C159.847207,53.1726303 156.263389,49.5794833 156.263389,45.1465729 C156.263389,40.7136625 159.847207,37.1205155 164.276896,37.1205155 C168.702874,37.1205155 172.290403,40.7136625 172.290403,45.1465729" id="Fill-32" stroke="#963B3B" fill="#EC8484"></path>
                        <path d="M248.41872,23.0749151 C248.41872,27.5078255 244.831192,31.1009725 240.405213,31.1009725 C235.975525,31.1009725 232.391706,27.5078255 232.391706,23.0749151 C232.391706,18.6420046 235.975525,15.0488576 240.405213,15.0488576 C244.831192,15.0488576 248.41872,18.6420046 248.41872,23.0749151" id="Fill-34" stroke="#963B3B" fill="#EC8484"></path>
                        <path d="M263.444046,21.0684007 C263.444046,25.5013111 259.856518,29.0944581 255.430539,29.0944581 C251.00085,29.0944581 247.417032,25.5013111 247.417032,21.0684007 C247.417032,16.6354903 251.00085,13.0423433 255.430539,13.0423433 C259.856518,13.0423433 263.444046,16.6354903 263.444046,21.0684007" id="Fill-36" stroke="#963B3B" fill="#EC8484"></path>
                        <path d="M269.454176,8.02605741 C269.454176,12.4589678 265.866648,16.0521148 261.440669,16.0521148 C257.010981,16.0521148 253.427162,12.4589678 253.427162,8.02605741 C253.427162,3.593147 257.010981,0 261.440669,0 C265.866648,0 269.454176,3.593147 269.454176,8.02605741" id="Fill-38" stroke="#963B3B" fill="#EC8484"></path>
                        <path d="M353.596001,45.1465729 C353.596001,49.5794833 350.008473,53.1726303 345.582494,53.1726303 C341.152805,53.1726303 337.568987,49.5794833 337.568987,45.1465729 C337.568987,40.7136625 341.152805,37.1205155 345.582494,37.1205155 C350.008473,37.1205155 353.596001,40.7136625 353.596001,45.1465729" id="Fill-40" stroke="#963B3B" fill="#EC8484"></path>
                        <path d="M401.677044,66.2149736 C401.677044,70.647884 398.089515,74.241031 393.663537,74.241031 C389.233848,74.241031 385.65003,70.647884 385.65003,66.2149736 C385.65003,61.7820632 389.233848,58.1889162 393.663537,58.1889162 C398.089515,58.1889162 401.677044,61.7820632 401.677044,66.2149736" id="Fill-42" stroke="#963B3B" fill="#EC8484"></path>
                        <path d="M646.08901,105.342004 C646.08901,109.774914 642.501482,113.368061 638.075503,113.368061 C633.645815,113.368061 630.061996,109.774914 630.061996,105.342004 C630.061996,100.909093 633.645815,97.3159461 638.075503,97.3159461 C642.501482,97.3159461 646.08901,100.909093 646.08901,105.342004" id="Fill-44" stroke="#963B3B" fill="#EC8484"></path>
                        <path d="M886.494224,216.70355 C886.494224,221.13646 882.906695,224.729607 878.480717,224.729607 C874.051028,224.729607 870.467209,221.13646 870.467209,216.70355 C870.467209,212.27064 874.051028,208.677493 878.480717,208.677493 C882.906695,208.677493 886.494224,212.27064 886.494224,216.70355" id="Fill-46" stroke="#963B3B" fill="#EC8484"></path>
                        <path d="M389.656783,64.2084593 C389.656783,68.6413697 386.069255,72.2345167 381.643276,72.2345167 C377.213587,72.2345167 373.629769,68.6413697 373.629769,64.2084593 C373.629769,59.7755489 377.213587,56.1824019 381.643276,56.1824019 C386.069255,56.1824019 389.656783,59.7755489 389.656783,64.2084593" id="Fill-48" stroke="#963B3B" fill="#EC8484"></path>
                        <path d="M122.205983,135.439719 C122.205983,139.872629 118.618455,143.465776 114.192476,143.465776 C109.762788,143.465776 106.178969,139.872629 106.178969,135.439719 C106.178969,131.006808 109.762788,127.413661 114.192476,127.413661 C118.618455,127.413661 122.205983,131.006808 122.205983,135.439719" id="Fill-50" stroke="#963B3B" fill="#EC8484"></path>
                        <path d="M123.207672,140.456005 C123.207672,144.888915 119.620143,148.482062 115.194165,148.482062 C110.764476,148.482062 107.180658,144.888915 107.180658,140.456005 C107.180658,136.023094 110.764476,132.429947 115.194165,132.429947 C119.620143,132.429947 123.207672,136.023094 123.207672,140.456005" id="Fill-52" stroke="#963B3B" fill="#EC8484"></path>
                    </g>
                </g>
            </g>
        </g>
    </g>
</svg>